<?xml version="1.0" encoding="utf-8"?>
<!-- Generator: Adobe Illustrator 18.1.1, SVG Export Plug-In . SVG Version: 6.00 Build 0)  -->
<svg version="1.1" xmlns="http://www.w3.org/2000/svg" xmlns:xlink="http://www.w3.org/1999/xlink" x="0px" y="0px"
	 viewBox="-55 57 400 400" enable-background="new -55 57 400 400" xml:space="preserve">
<g id="layer1" xmlns:dc="http://purl.org/dc/elements/1.1/" xmlns:cc="http://web.resource.org/cc/" xmlns:rdf="http://www.w3.org/1999/02/22-rdf-syntax-ns#" xmlns:svg="http://www.w3.org/2000/svg">
	<g id="g1">
		<g id="polygon1">
			<path fill="#21FFE2" d="M153.8,390.6c-3.2,0-6.3-1.1-8.8-3.3l-79.7-68.9H-6.3c-7.5,0-13.5-6-13.5-13.5v-91.6
				c0-7.5,6-13.5,13.5-13.5h72.8l78.5-67.9c4-3.5,9.6-4.3,14.4-2.1c4.8,2.2,7.9,7,7.9,12.3v234.9c0,5.3-3.1,10.1-7.9,12.3
				C157.6,390.2,155.7,390.6,153.8,390.6z"/>
		</g>
	</g>
</g>
<g id="Layer_4">
	<g id="path1_3_">
		<path fill="#21FFE2" d="M195.7,324.7c-2.4,0-4.9-0.7-7.1-2c-6.3-3.9-8.3-12.3-4.3-18.6c8.3-13.3,12.6-28.5,12.6-44
			c0-15.8-4.5-31.2-13-44.6c-4-6.3-2.1-14.6,4.2-18.6c6.3-4,14.6-2.1,18.6,4.2c11.2,17.7,17.2,38.1,17.2,59
			c0,20.5-5.8,40.7-16.7,58.2C204.6,322.5,200.2,324.7,195.7,324.7z"/>
	</g>
</g>
<g id="Layer_3">
	<g id="path1_1_">
		<path fill="#21FFE2" d="M260.9,389.9c-2.9,0-5.9-0.9-8.4-2.9c-5.8-4.6-6.8-13.1-2.2-18.9c24.5-31,37.5-68.3,37.5-107.9
			c0-39.8-13.1-77.3-37.9-108.5c-4.6-5.8-3.7-14.3,2.1-19c5.8-4.6,14.3-3.7,19,2.1c28.7,36,43.8,79.3,43.8,125.3
			c0,45.7-15,88.8-43.3,124.6C268.8,388.1,264.9,389.9,260.9,389.9z"/>
	</g>
</g>
<g id="Layer_2">
	<g id="path2_1_">
		<path fill="#21FFE2" d="M229.5,358.5c-2.8,0-5.6-0.8-8-2.6c-6-4.4-7.3-12.8-2.9-18.9c16.5-22.4,25.2-49,25.2-76.9
			c0-28.2-8.8-55-25.6-77.5c-4.4-6-3.2-14.4,2.8-18.9c6-4.4,14.4-3.2,18.9,2.8c20.2,27.3,30.9,59.6,30.9,93.6
			c0,33.7-10.5,65.8-30.4,92.9C237.8,356.6,233.7,358.5,229.5,358.5z"/>
	</g>
</g>
</svg>
