<?xml version="1.0" encoding="utf-8"?>
<!-- Generator: Adobe Illustrator 19.2.0, SVG Export Plug-In . SVG Version: 6.00 Build 0)  -->
<svg version="1.1" id="Layer_1" xmlns="http://www.w3.org/2000/svg" xmlns:xlink="http://www.w3.org/1999/xlink" x="0px" y="0px"
	 viewBox="0 0 341.5 93.7" style="enable-background:new 0 0 341.5 93.7;" xml:space="preserve">
<style type="text/css">
	.st0{enable-background:new    ;}
	.st1{fill:#FFFFFF;}
</style>
<g class="st0">
	<path class="st1" d="M55.6,47.5c0.8-3.4,1.4-6.8,2.4-10.1c0.9-3.2,2.1-6.4,3.3-9.4c0.6-1.4,1.2-2.8,1.9-4.3
		c0.8-1.7,1.1-3.5,2.1-5.1c0.6-1,1-2.4,1.8-3.2c1.1-1.2,2.7-0.4,3.5,0.8c0.8,1.1,0.2,2.7-0.1,3.9c-0.4,1.8-0.5,3.5-1.1,5.2
		c-0.5,1.6-1.2,3-1.9,4.5c-0.7,1.4-1,2.9-1.5,4.4c-2.1,6.4-3.7,12.8-6.2,19.1c-0.7,1.9-1.6,3.7-2.7,5.4c-0.8,1.2-1.8,2.8-3.4,3.1
		c-2,0.5-2.5-1.2-2.8-2.8c-0.4-2.1-0.4-4.3-0.8-6.5c-0.6,1.2-0.9,2.4-1.5,3.6c-0.7,1.5-1.6,2.9-2.6,4.2c-0.8,1-1.4,1.8-2.7,1.8
		c-1.6,0-1.9-1.3-2.2-2.6c-0.6-3-0.6-6.1-0.8-9.1c-0.2-3.2-0.2-6.3-0.2-9.5c-0.1-6.2,0.4-12.2,1-18.4c0.1-1.2,0.1-2.6,1-3.4
		c1.1-0.9,1.9-0.6,2,0.9c0.1,2.8-0.2,5.8-0.4,8.6c-0.2,3.6-0.2,7.3,0,10.8c0.2,3.7,0.8,7.4,0.8,11.1c1.3-2,1.5-4.8,2.1-7.1
		c0.6-2.6,1.3-5.1,1.9-7.7c0.6-2.6,1.4-5.2,2-7.9c0.6-2.7,0.9-5.4,2-7.9c0.1-0.2,0.3-1,0.7-1c0.5-0.1,0.5,0.9,0.6,1.3
		c0.3,1.3,0.3,2.6,0.4,3.9c0.1,2.6,0.2,5.2,0.3,7.8c0.1,2.8,0.2,5.6,0.4,8.5C55.1,42.7,54.9,45.6,55.6,47.5z"/>
	<path class="st1" d="M78.1,54.9c0.4,0,0.1,0.9,0,1.1c1-0.7,2.2-1,3.2-1.9c0.5-0.5,1.4-2.1,2.3-2c1.9,0.3-1.3,4.7-1.8,5.3
		c-1.3,1.4-3.5,2.3-5.5,2c-1.4-0.2-2-1.1-2.4-2.3c0,0,0.1-0.2,0.1-0.3c-0.1-0.3-0.2-0.2-0.3-0.8c-0.1-0.8-0.1-1.6,0-2.3
		c0.1-1.1,2.6-6.1,0.8-6.5c-1.1-0.2-1.4,0.9-1.8,1.5c-0.3,0.5-0.6,0.9-0.9,1.4c-0.4,0.7-0.5,1.2-0.7,2c-0.5,2.1-1.5,4.2-1.7,6.4
		c-0.1,1.2-0.7,2.4-0.9,3.6c-0.2,1.2-0.5,2.6-1.1,3.8c-0.2,0.3-0.4,0.9-0.7,1.2c-0.4,0.4-0.9,0.5-1.5,0.6c-1.6,0.4-0.9-1.5-0.9-2.4
		c0-0.7-0.2-1.3-0.1-2.1c0.1-0.6,0.1-1.1,0-1.7c-0.1-0.9,0-1.9,0.1-2.9c0.1-1.3,0.5-2.5,0.7-3.8c0.2-1.4,0.5-2.8,0.8-4.2
		c0.6-2.9,1.1-5.8,1.7-8.7c1.1-5.8,2.4-11.7,3.2-17.6c0.1-1,0.4-2.5,1.7-1.8c0.5,0.3,0.9,0.9,1.4,1.2c0.5,0.2,0.9,0.3,1.3,0.7
		c1,0.9,1,2.9,0.8,4.2c-0.1,0.7,0.1,1.2,0.1,1.9c0,0.7-0.2,1.4-0.2,2.1c-0.2,1.4-0.4,2.8-0.6,4.2c-0.2,1.2-0.6,2.3-0.9,3.4
		c-0.2,0.8-0.9,3.5-0.2,3.9c0.4,0.2,1.3,0.1,1.8,0.1c0.6,0.1,1.2,0.2,1.8,0.6c0.7,0.6,1.2,1.8,1.2,2.7c0,0.2-0.2,0.2-0.2,0.3
		c0,0.3,0,0.6,0,0.9c0,0.8,0.1,1.6,0.1,2.5C78.7,52.5,78.5,53.7,78.1,54.9C78.1,54.9,78.1,54.8,78.1,54.9z"/>
	<path class="st1" d="M86,59.9c-0.9-0.6-1.8-1.1-2.3-2.1c-0.4-0.9-0.4-1.8-0.5-2.8c-0.1-1-0.2-1.8,0.1-2.8c0.4-1.1,1.1-2.5,1.8-3.3
		c1.6-1.9,3.8-3.1,6-4.2c1.1-0.5,2.2-0.9,3.4-1.1c0.8-0.1,2.6,0.5,1.3,1.3c0.5,0.2,1.2-0.1,1.6,0.2c0.7,0.4,0.3,1.3,0.2,1.9
		c-0.1,1.1-0.4,2.3-0.8,3.3c-0.5,1.1-0.7,2.2-0.9,3.3c-0.1,0.8-0.6,1.9-0.3,2.8c0.4-0.4,1.1-0.6,1.5-0.9c0.6-0.4,1.2-0.8,1.7-1.2
		c1-0.8,1.9-1.8,2.9-2.7c0.5-0.5,1.7-1.6,2.3-1.3c0.9,0.5-0.8,1.8-1.3,2.2c-1.5,1.4-3,2.8-4.5,4.3c-0.5,0.5-1.6,1.7-2.5,1.5
		c-0.4-0.1-1.1-0.7-1.5-0.9c-0.3-0.2-0.6-0.4-0.9-0.5c-0.5-0.3-0.3-0.3-0.8,0c-0.7,0.5-1,1.3-1.5,2c-0.4,0.5-1.1,1-1.8,1.2
		C88.9,60.3,86,60.3,86,59.9C85.8,59.8,86,60,86,59.9z M86.6,55.3c-0.6,0-1,1.3-1.1,1.7c-0.1,0.8,0.5,1.3,1.2,1.4
		c0.9,0.1,2.2-0.4,2.9-0.9c0.6-0.5,2.2-1.7,2.4-2.4c0.1-0.5-0.2-1.3-0.2-1.9c0.1-1,0.4-1.9,0.7-2.8c0.6-1.8,1.8-3.1,2.6-4.8
		c-0.7,0-0.9,0.6-1.4,1c-0.2,0.1-0.5,0.2-0.7,0.3c-0.2,0.1-0.4,0.2-0.5,0.3c-1,0.7-1.4,1.3-2,2.3c-0.5,0.9-1.1,1.8-1.8,2.6
		c-0.4,0.4-1.5,2.3-2,2.3c0,0.3,0.2-0.2,0,0.3C86.7,54.7,86.5,55.2,86.6,55.3C86.5,55.3,86.5,55.2,86.6,55.3z"/>
	<path class="st1" d="M106.8,66.3c-0.5,0.5-2.2-0.3-2.6-0.5c-0.5-0.3-1-0.7-1.4-1.1c-0.9-1-1.6-2.7-1.6-4c0-1.5,0.2-3.3,0.6-4.8
		c0.5-1.6,0.8-3.3,1.2-4.9c0.4-1.5,0.6-3.1,1.1-4.5c0.5-1.2,0.5-2.5,1-3.7c0.2-0.6,0.2-1,0.3-1.6c0.1-0.3,0.5-1,0.4-1.3
		c-0.3-0.8-3.2,0.2-3.9,0.3c-0.7,0.1-1.4,0.2-2.1,0.1c-0.6-0.1-0.5,0.1-0.8-0.4c-0.2-0.3-0.4-0.6-0.6-0.9c-0.9-1.5,1.6-1.9,2.6-2.1
		c1.3-0.3,2.6-0.6,3.8-1c1.1-0.3,2.3-0.1,2.8-1.3c0.4-1.2,0.6-2.5,1.2-3.8c0.3-0.6,0.6-1.2,0.8-1.8c0.2-0.6,0.3-1.1,1.1-1.2
		c0.8-0.1,2.3,0.8,2.7,1.5c0.7,1.2,0.1,3-0.3,4.2c-0.1,0.3-0.3,0.9-0.3,1.1c0.1,0.5,0.2,0.4,0.8,0.4c0.5,0.1,0.9,0.1,1.4,0.1
		c1.5,0,2.9,0.1,4.4,0.4c2.1,0.3,4.1,1,6.1,1.8c1,0.4,0.6,0.8-0.4,0.7c-0.3,0-1-0.4-1,0.2c-0.3,0-0.6,0-0.9,0
		c0.1-0.3,0.3-0.2,0.6-0.2c0.1-0.6-1.2-0.5-1.7-0.5c-0.4,0-0.6,0.3-1,0.3c0.3,0.2,0.7,0.1,0.9-0.1c0.2,0,0.9,0.3,0.9,0.4
		c-0.2-0.1-0.9,0-1.2,0c-0.6,0-1.2-0.1-1.8-0.1c-0.9,0-1.8-0.1-2.7,0c-1.2,0.2-2.2-0.1-3.3-0.1c-0.5,0-1.9-0.1-2.2,0.2
		c0.1,0,0.2,0,0.3-0.1c0,0,0,0.1,0,0.1c-1.4,0.4-1.1,0.6-1.5,1.9c-0.3,1.2-0.8,2.3-1,3.5c-0.2,1-0.3,1.8-0.6,2.8
		c-0.4,1.1-0.9,2.2-1.1,3.4c-0.1,0.8-0.2,1.8-0.4,2.6c0,0.2-0.3,0.3-0.3,0.4c0,0.2,0.1,0.4,0,0.6c-0.2,0.5-0.4,0.9-0.4,1.3
		c-0.1,0.8-0.1,1.6-0.4,2.4c-0.2,0.7-0.4,1.1-0.4,1.8c0,0.5-0.2,1-0.2,1.6c-0.1,0.9-0.2,1.7,0.4,2.5c0.9,1.2,2.1,0.7,3.2,0
		c2.2-1.3,4.3-2.7,6.4-4.3c1-0.7,2-1.5,2.9-2.3c0.5-0.5,2-2.1,2.2-0.4c0.1,0.6-0.4,0.8-0.7,1.3c-0.2,0.4-0.2,0.6-0.5,1
		c-0.5,0.7-1.4,1.2-2.1,1.8c-1.7,1.4-3.5,2.7-5.3,4c-0.4,0.3-0.9,0.4-1.3,0.7c-0.5,0.4-0.8,0.7-1.5,1
		C109.3,65.8,106.8,66.1,106.8,66.3C106.8,66.3,106.8,66.2,106.8,66.3z"/>
</g>
<g class="st0">
	<path class="st1" d="M142.5,47.7c0.6-2.3,1-4.7,1.8-6.9c0.7-2.1,1.8-4.1,2.4-6.2c0.3-1,1.4-4.1,2.8-3.3c1,0.5,0.8,1.3,0.6,2.2
		c-0.2,0.9-0.3,1.8-0.5,2.7c-0.4,1.2-1,2.3-1.4,3.4c-0.3,0.9-0.5,1.9-0.8,2.8c-0.7,2.3-1.4,4.7-2.2,7c-0.6,1.6-1.6,4.9-3.4,5.5
		c-2.1,0.7-1.8-3.5-2-4.7c-0.7,1.4-1.2,3.7-2.6,4.6c-2,1.3-2.1-1.9-2.2-3c-0.3-4.2-0.5-8.6-0.1-12.8c0.1-1,0.2-2,0.3-3
		c0.1-0.8-0.1-2.3,0.7-2.8c1.4-0.8,0.8,3.2,0.8,4c-0.1,2.1-0.2,4.2-0.1,6.4c0.1,1.9,0.4,3.8,0.4,5.7c0.6-0.9,0.7-2.2,1-3.3
		c0.3-1.3,0.6-2.5,0.9-3.8c0.3-1.3,0.7-2.6,1-3.9c0.3-1.3,0.4-2.7,0.9-3.9c0.1-0.2,0.4-1.3,0.7-1.2c0.3,0.1,0.3,1.2,0.4,1.4
		c0.2,1.4,0.1,2.9,0.2,4.4c0.1,1.5,0.1,3.1,0.2,4.6C142.2,44.9,142.2,46.5,142.5,47.7z"/>
</g>
<g class="st0">
	<path class="st1" d="M157.2,49.1c0,0.9-1,1.9-1.5,2.6c-0.8,1-1.8,1.9-2.7,2.7c-1.2,1.1-3.1,2-4.6,0.8c-1-0.8-1.1-2.9-0.9-4
		c0.2-1.2,0.6-2.7,1.4-3.6c0.5-0.6,0.9-0.9,1.6-1c0.8,0,1.8,0.3,2.2,1c0.6,1.1-0.6,2.6-1.4,3.3c-0.8,0.7-3.5,1.3-1.9,2.6
		c1.2,1.1,3.1-0.7,4-1.5C153.8,51.6,156.8,47.8,157.2,49.1C157.2,49.1,157.2,49,157.2,49.1z M148.9,51c0,0.2,1.1-0.8,1.1-0.8
		c0.1-0.1,1.1-1.5,0.9-1.7c-0.2-0.3-1,0.3-1.1,0.5c-0.3,0.3-0.4,0.7-0.6,1C149.1,50.2,149,50.9,148.9,51
		C148.9,51.1,148.9,51,148.9,51z"/>
</g>
<g class="st0">
	<path class="st1" d="M154.4,38.7c-0.1,0.2-0.4,1.2-0.7,1.2c-0.7,0-0.3-0.7-0.2-1c0.4-1.3,0.9-2.6,1.3-3.9
		C156.2,35.9,155,37.6,154.4,38.7C154.1,39.5,155.1,37.2,154.4,38.7z"/>
</g>
<g class="st0">
	<path class="st1" d="M157.7,45c0.3,0.3,0.9,0.6,1,1c0,0.1-0.1,0-0.1,0c0,0.1,0,0.1,0,0.2c0,0,0,0,0.1-0.1c0,0.1,0.1,0.3,0.2,0.2
		c-0.1,0.3-0.1,0.2-0.1,0.2c0,0.1,0,0.2,0.1,0.2c0,0.3,0.1,0.6-0.1,0.7c0.1,0.1,0,0,0.1,0.1c-0.2,0-0.2,0.2-0.3,0.4
		c0.1,0.2,0.1,0.1,0.1,0.1c0.8,0,0.8-1.8,1.8-1.4c0.9,0.4,0.2,1.9-0.1,2.6c-0.6,1.7-1.4,3.4-2.2,5c-0.2,0.3-0.9,1.9-0.8,2
		c0.5,0.3,1.8-1.1,2.1-1.4c0.7-0.7,1.5-2.4,2.4-2.7c0,0-0.1,0.9-0.2,1.1c-0.2,0.3-0.4,0.5-0.6,0.8c-0.1,0.2-0.4,1.2-0.7,1.2
		c0-0.1,0-0.1,0.1-0.1c0-0.3-0.5,0.3-0.5,0.3c0,0,0,0.2,0,0.3c0,0,0-0.1-0.1-0.1c-0.2,0.1-0.4,0.9-0.6,0.9c0,0,0-0.1-0.1-0.1
		c0,0.1,0,0.1,0.1,0.1c-0.3,0.2-0.8,0.4-1.1,0.6c0-0.1,0-0.1,0.1-0.1c0,0,0-0.1,0-0.1c-0.5,0-0.8,0.3-1.4,0.2
		c-1.7-0.3-1.1-1.5-0.6-2.7c0.2-0.4,2.1-3.6,1.8-3.9c0,0-1.6-0.1-1.8-0.2c-0.4-0.2-0.9-0.5-1.2-0.8c-0.4-0.4-0.5-0.9-0.5-1.4
		c0-1.2,0.9-2.4,1.8-3.2c0.1,0.1-0.3,0.3-0.2,0.3c0.2-0.5,0.8-0.7,1.2-0.3 M157.4,47c0-0.4-0.4,0-0.4-0.1c0,0,0,0,0,0.1
		c0,0-0.2,0.1-0.1,0c-0.1,0-0.4,0.8-0.5,0.8c-0.1,0.4-0.1,0.7,0,1C156.8,48.3,157.4,47.5,157.4,47z M157.6,55.1
		C157.7,55.1,157.7,55.1,157.6,55.1L157.6,55.1z M157.7,55.6C157.7,55.6,157.7,55.7,157.7,55.6C157.7,55.6,157.7,55.6,157.7,55.6z
		 M158.1,54.4C158.1,54.5,158.1,54.5,158.1,54.4L158.1,54.4z M158.2,54.1C158.1,53.9,158.2,54.1,158.2,54.1
		C158.2,54.1,158.2,54.2,158.2,54.1z M158.2,45.3C158.2,45.3,158.2,45.4,158.2,45.3L158.2,45.3z M158.7,52.9
		C158.8,52.9,158.9,52.9,158.7,52.9L158.7,52.9z M159,46.9C159,47,159,46.9,159,46.9L159,46.9z"/>
</g>
<g class="st0">
	<path class="st1" d="M170.7,49.1c0,0.9-1,1.9-1.5,2.6c-0.8,1-1.8,1.9-2.7,2.7c-1.2,1.1-3.1,2-4.6,0.8c-1-0.8-1.1-2.9-0.9-4
		c0.2-1.2,0.6-2.7,1.4-3.6c0.5-0.6,0.9-0.9,1.6-1c0.8,0,1.8,0.3,2.2,1c0.6,1.1-0.6,2.6-1.4,3.3c-0.8,0.7-3.5,1.3-1.9,2.6
		c1.2,1.1,3.1-0.7,4-1.5C167.3,51.6,170.3,47.8,170.7,49.1C170.7,49.1,170.7,49,170.7,49.1z M162.4,51c0,0.2,1.1-0.8,1.1-0.8
		c0.1-0.1,1.1-1.5,0.9-1.7c-0.2-0.3-1,0.3-1.1,0.5c-0.3,0.3-0.4,0.7-0.6,1C162.6,50.2,162.5,50.9,162.4,51
		C162.4,51.1,162.4,51,162.4,51z"/>
</g>
<g class="st0">
	<path class="st1" d="M208.2,18.9c1,0.3,2.1,0.6,3.1,0.9c1.3,0.4,1.6,1.2,1.4,2.5c-0.3,2.6-0.7,5.1-1,7.7c-0.6,5-1.7,9.8-2.5,14.8
		c-0.4,2.5-0.6,5.1-1.1,7.7c-0.2,1.2-0.4,2.4-0.8,3.5c-0.2,0.6-0.5,1.1-0.7,1.6c-0.1,0.4,0,0.9-0.1,1.3c-0.3,1.6-3.3,3.6-4.9,3.2
		c-1.8-0.5-0.8-4.5-0.6-5.8c0.3-2.5,0.9-5,1-7.6c0.2-2.7,0.8-5.4,0.8-8.1c-2.6,0.5-5.1,1.2-7.7,1.8c-0.8,0.2-2.4,0.3-3.1,0.8
		c-0.7,0.5-0.8,2-1,2.9c-0.5,2.1-0.9,4.2-1.4,6.4c-0.5,2.4-0.6,5-0.9,7.4c-0.1,1.3-0.3,2.5-0.6,3.7c-0.2,1-0.3,2.3-0.7,3.2
		c-0.3,0.8-0.8,1.7-1.5,2c-1,0.5-2,0.7-2.9,1.4c-1.7,1.2-2.3-2.3-2.4-3.5c0-1.1,0.2-2,0.6-3c0.4-1.2,0.5-2.5,0.6-3.7
		c0.4-5.3,1.6-10.6,1.6-15.9c-1.9,0.1-3.8,0.6-5.8,0.3c-1.9-0.2-3.3-1.4-4.8-2.5c-1.6-1.1-3-1.8-3-3.8c0-1.9,0.5-3.4,1.7-4.9
		c1.1-1.4,2.4-2.8,3.9-3.8c1.6-1,3.6-2.3,5.4-3c1.5-0.5,3.4,0.7,4.1,2c0.9,1.5-1.6,2.9-2.5,3.7c-1.9,1.5-6.8,4.4-5.2,7.4
		c0.8,1.6,3,1.8,4.6,1.7c0.5,0,0.9-0.1,1.4-0.1c0.7-0.1,0.6,0,0.8-0.5c0.4-0.9,0.3-2.4,0.4-3.4c0.5-3.9,1.3-7.8,1.7-11.7
		c0.1-0.8,0-1.5,0.1-2.3c0.1-0.8,0.4-1.7,0.5-2.5c0.1-0.8-0.2-1.2,0.7-1.4c0.9-0.2,2.3,0,3.3,0.2c1.5,0.3,3.1,1.5,3,3.1
		c0,2.2-0.4,4.3-0.6,6.4c-0.3,3.6-1.2,7.2-1.2,10.9c3.4-0.2,6.6-0.8,9.9-1.4c0.9-0.2,1.3,0,1.5-1c0.1-0.8,0.2-1.6,0.4-2.3
		c0.2-1.5,0.4-3,0.6-4.4c0.3-2.4,0.6-4.9,1.2-7.3c0.2-0.8,0.4-1.6,0.6-2.4c0.1-0.5,0.1-1.2,0.4-1.6
		C206.7,18.7,207.5,18.9,208.2,18.9z"/>
	<path class="st1" d="M227.2,48.6c0.1-0.2-0.3,0.5-0.3,0.6c-0.1,0.3-0.2,0.9-0.4,1.3c-0.2,0.4-0.6,1.2-0.9,1.5c0.3,0.2,0,0,0,0.4
		c-0.1-0.1-0.3-0.2-0.3,0c0.7-0.4,0,0.9-0.1,1c-0.1,0-0.2,0.2-0.2,0c0,0.1,0.1,0.1,0.2,0.2c-0.2,0.2-0.8,1.4-0.3,1.4
		c-0.8,1.3,1.8,0.2,2.1-0.1c0.5-0.3,1-0.5,1.5-0.8c0.6-0.4,0.8-1.1,1.5-0.7c0,0,0.2,0.3,0.2,0.3c0.2,0.2,0.5,0.3,0.6,0.5
		c0.1,0.1,0.6,0.5,0.4,0.5c0,0.1-0.1,0,0,0c0,0.1-0.3,1.1-0.4,1.2c-0.2,0-1,0.6-1,0.9c0.2-0.2,0.1,0.1,0.1,0.1
		c-0.1,0.1-0.3,0.1-0.2,0.3c-0.4,0.2-1.2,0.7-1.7,0.9c-1.4,0.4-3,0.6-4.5,0.3c-0.5-0.1-1.3-0.4-1.8-0.1c-0.5,0.3-0.7,1.2-1,1.6
		c-1.5,2.6-6.1,2.8-8.5,1.4c-0.4-0.2-1-0.7-1-1.2c0-0.2,0.2-0.5,0.2-0.8c0-0.2,0-0.4-0.1-0.6c0.1,0,0.4-1.4,0.4-1.5l0.2-0.7
		c0,0,0.6-1.8,0.6-1.7c0-0.2-0.1-0.4-0.1-0.7c0.3,0.2,0.3-0.3,0.2-0.4c0.1,0,0.2,0,0.2,0c-0.4-0.2,0.7-1.1,0.2-1.1
		c0.2-0.2,0.4,0.1,0.4-0.4c-0.1,0.3-0.2-0.5,0.2-0.7c-0.1,0-0.1,0-0.2,0c0.8-1.3,1-2.9,1.8-4.2c0.3-0.5,0.7-1.1,1-1.7
		c0.2-0.5,0.2-1.1,0.6-1.5c0.8-0.8,2.3-0.4,3.2,0c0.4,0.2,1.1,0.6,1.3,1.1c0.1,0.3,0,1-0.5,1c0.6,0-0.7,0.8-0.5,0.6
		c-0.1,0.2,0,0.3-0.4,0.6c0,0,0.1,0.1,0.2,0.1c-0.7,0.2-0.3,1.7-1.2,1.9c0.2,0.2-0.5,1.9-0.8,2.3c-0.3,0.5-0.7,1-1.1,1.6
		c-0.4,0.7-0.6,1.4-0.9,2.1c-0.2,0.5-0.6,0.9-0.7,1.5c0,0.1,0,0.3,0,0.3c0,0-0.2,0.4-0.2,0.5c0.1,0.1,0.2,0.1,0.3,0
		c-0.4,0.3,0.1,0.1-0.3,0.3c0,0.1,0,0.1,0,0.2c-0.1,0-0.1-0.1-0.2-0.1c-0.2,0.3,0.7,1.1,1.1,1c0.8-0.2,1.9-2.1,2.3-2.8
		c1.6-2.4,2.5-5,3.7-7.5c0.6-1.1,1.2-2.2,1.8-3.3c0.5-1,1.1-1.8,2.4-1.3c0.9,0.3,1.4,0.8,1.3,1.8c0,0.3-0.2,1.8-0.6,1.3
		c-0.2,0.3,0.8,0.6,0.1,1.1 M213.8,51.6C213.9,51.5,213.8,51.6,213.8,51.6L213.8,51.6z M217,54.3L217,54.3 M224.6,53.4
		C224.6,53.4,224.7,53.2,224.6,53.4L224.6,53.4z M225.2,59C225.3,58.8,225.3,58.9,225.2,59C225.2,58.9,225.2,59,225.2,59z"/>
	<path class="st1" d="M248,43.3c0.2,0.6-0.1,1.8-0.3,2.4c-0.3,1-0.1,1.7-0.2,2.7c-0.1,0.6-0.4,1.1-0.6,1.7c-0.2,0.7,0,1.3-0.1,2
		c-0.2,1.7-1,3.3-1.1,4.9c0,0.2-0.1,0.8,0,1c0.1,0.3,0.5,0.5,0.7,0.8c0.3,0.8-0.2,1-0.9,1.1c-1.7,0.1-3.2-1.2-3.5-2.8
		c-0.3-1.7,0.4-3.3,1-4.9c1-2.8,2.2-5.9,2.2-8.8c-1.5,0-3.1,2.2-3.9,3.4c-1.3,1.9-2.2,4.3-3.2,6.3c-1.1,2.2-2.4,4.5-3.3,6.8
		c-0.2,0.6-0.5,1.5-0.7,2.1c-0.3,1.4,0.1,2.1-1.5,2.3c-0.9,0.1-2,0.2-2.7-0.4c-0.9-0.8-1-2.5-1.1-3.6c-0.2-2.6,0.3-5.4,1.1-7.9
		c1.4-4.1,1.9-8.4,2.7-12.7c0.3-1.8,1.4-1.8,2.9-1c1.5,0.8,1.4,2,1.4,3.5c0,0.7,0.3,1.3,0.3,2c0,0.6-0.1,1.2-0.2,1.7
		c-0.1,0.9-0.4,2-0.3,3c0.7,0,1.7-2.4,2.1-3c0.7-1,1.7-2.1,2.7-2.8c1-0.8,1.8-1.2,3.1-1.2C245.6,42,247.4,42.1,248,43.3
		C248.1,43.4,247.8,42.9,248,43.3z"/>
	<path class="st1" d="M274.9,38c0.1-0.6-1.5-0.5-1.9-0.5c-0.4,0-0.7,0.3-1.1,0.3c0.5,0.3,1.9-0.4,2,0.3c-0.3-0.1-1,0-1.3,0
		c-0.7,0-1.4-0.1-2.1-0.1c-1.1,0-2.2-0.1-3.3,0c-1.3,0.2-2.6,0-3.8,0c-0.7,0-1.6-0.3-2.1,0.1c0.1,0,0.2,0,0.3,0c0,0,0,0.1,0,0.1
		c-0.7,0.1-1.2,0-1.5,0.7c-0.2,0.4-0.2,0.9-0.3,1.3c-0.4,1.1-0.8,2.1-1.1,3.2c-0.1,0.5-0.1,1.1-0.2,1.6c-0.2,0.6-0.5,1.1-0.8,1.6
		c-0.5,1.1-0.8,2-1.1,3.3c-0.4,1.7-0.9,3-1.2,4.8c-0.1,0.4-0.2,0.9-0.4,1.3c-0.1,0.2-0.3,0.5-0.4,0.8c-0.3,0.7-0.1,0.4-0.1,1
		c-0.1,0.9-0.5,1.9-0.3,2.8c0.7,3.3,4.5,0.6,6.2-0.2c2.4-1,4.6-2.4,6.7-3.8c0.9-0.6,1.8-1.3,2.8-1.9c0.4-0.2,0.7-0.6,1.2-0.3
		c0.9,0.4,0.4,1,0,1.5c-0.3,0.4-0.3,0.7-0.6,1.1c-0.3,0.4-0.9,0.8-1.3,1.1c-0.6,0.4-1.2,0.7-1.8,1.1c-1,0.8-2.1,1.2-3.1,2
		c-0.9,0.6-1.9,1.2-2.9,1.7c-1.1,0.5-2,1.1-3.3,1.4c-0.3,0.1-2.7,0.3-2.7,0.5c0,0,0-0.1,0,0c-0.6,0.5-2.4-0.3-3-0.5
		c-0.5-0.2-1-0.6-1.4-0.9c-1.1-0.9-2-2.5-2-3.9c0-1.4,0.2-3.1,0.7-4.5c0.2-0.4,0.5-0.8,0.6-1.2c0.1-0.3,0-0.6,0.1-1
		c0.3-0.8,0.4-1.6,0.7-2.4c0.5-1.5,0.9-3,1.5-4.6c0.4-1,0.5-2.1,0.9-3.1c0.1-0.3,0.9-2.6,0.7-2.8c-0.3-0.3-1.8,0-2.2,0.1
		c-0.8,0.1-1.7,0.2-2.5,0.3c-0.6,0.1-1.1,0.1-1.7,0.1c-0.2,0-0.9,0.2-1.1,0.1c-0.2-0.1-0.4-0.7-0.6-1c-0.4-0.5-0.8-0.4-0.5-1.2
		c0.4-0.8,1.4-0.9,2.2-1c1.3-0.2,2.7-0.6,4-0.8c0.5-0.1,1-0.2,1.6-0.3c0.6-0.1,1.4,0,1.9-0.3c0.5-0.2,0.9-0.7,1.1-1.2
		c0.1-0.2,0.1-0.6,0.2-0.8c0.1-0.2,0.3-0.6,0.4-0.8c0.2-0.6,0.4-1.2,0.6-1.7c0.1-0.2,0.3-0.6,0.4-0.8c0.1-0.1,0.2-0.3,0.3-0.4
		c0.1-0.2,0.1-0.6,0.2-0.7c0.7-1,2.2-0.5,3.2-0.1c0.5,0.2,1,0.6,1.2,1.1c0.4,0.7,0,1.2-0.1,1.8c-0.1,0.8-0.3,1.6-0.6,2.4
		c-0.4,1,0.1,0.9,1.1,1c1.1,0.1,2.2,0,3.2,0.1c1.7,0.2,3.4,0.3,5.1,0.6c1.2,0.2,2.3,0.7,3.5,1c0.7,0.2,1.8,0.3,2.4,0.8
		c0,0.6-2.1,0.1-2.5,0.3"/>
	<path class="st1" d="M264.6,57.6c0,0,0.2,0,0.2,0c0,0.7,0.6,0.2,1-0.1c0.6-0.4,1.1-0.8,1.4-0.9c0.6-0.3,1.3-0.8,1.9-1.4
		c0.3-0.3,1.3-1.2,1.5-0.2c-0.3,0.5-0.6,1.3-1.3,1.3c0,0.1,0,0.1,0,0.2c0,0,0.1-0.1,0.1,0c0,0,0,0.1,0,0.1c-0.5,0.1-1.1,0.9-1.4,1.3
		c-0.2,0.2-0.5,0.7-0.7,0.8c-0.2,0.1-0.4,0.1-0.5,0.2c-0.2,0.1-0.2,0.3-0.2,0.4c-0.8,0.6-1.7,0.5-2.7,0.4c-1.5-0.2-1.6-0.7-1.5-2
		c0.1-2.3,0.7-4.5,1.1-6.8c0.5-2.2,1.1-4.5,2.3-6.3c0.5-0.7,1.1-0.8,1.9-0.4c0.6,0.3,0.9,0.7,1.1,1.3c0.2,0.6,0.4,1,0.2,1.7
		c0,0-0.7,2.8-0.9,2.7s-0.2-0.2-0.2-0.1c0,0.1-0.5,1.9-0.7,2.4c-0.2,0.5-0.5,0.9-0.5,0.9l-0.1,0.5c0,0-0.3,0-0.4,0s-0.1-0.2-0.1,0
		s0.2,0.2,0.2,0.2l0.1-0.1l-0.2,0.5H266v0.1l0,0.1c0,0-0.5,1.6-0.8,2.1C264.9,56.8,264.5,57.3,264.6,57.6z M266.9,42.9
		c-1.1-0.5-1.3-2.3,0-2.5c0.7-0.1,2.6,0.3,3,0.9c0.3,0.5,0.3,1.6-0.2,2C268.8,44,267.7,42.9,266.9,42.9
		C266.6,42.7,267,42.9,266.9,42.9z M266.3,59.2c0-0.1,0-0.1,0-0.2c0,0-0.1,0-0.1,0C266.2,59,266.2,59.1,266.3,59.2
		C266.3,59.1,266.2,59.1,266.3,59.2z"/>
	<path class="st1" d="M292.9,43.3c0.2,0.6-0.1,1.8-0.3,2.4c-0.3,1-0.1,1.7-0.2,2.7c-0.1,0.6-0.4,1.1-0.6,1.7c-0.2,0.7,0,1.3-0.1,2
		c-0.2,1.7-1,3.3-1.1,4.9c0,0.2-0.1,0.8,0,1c0.1,0.3,0.5,0.5,0.7,0.8c0.3,0.8-0.2,1-0.9,1.1c-1.7,0.1-3.2-1.2-3.5-2.8
		c-0.3-1.7,0.4-3.3,1-4.9c1-2.8,2.2-5.9,2.2-8.8c-1.5,0-3.1,2.2-3.9,3.4c-1.3,1.9-2.2,4.3-3.2,6.3c-1.1,2.2-2.4,4.5-3.3,6.8
		c-0.2,0.6-0.5,1.5-0.7,2.1c-0.3,1.4,0.1,2.1-1.5,2.3c-0.9,0.1-2,0.2-2.7-0.4c-0.9-0.8-1-2.5-1.1-3.6c-0.2-2.6,0.3-5.4,1.1-7.9
		c1.4-4.1,1.9-8.4,2.7-12.7c0.3-1.8,1.4-1.8,2.9-1c1.5,0.8,1.4,2,1.4,3.5c0,0.7,0.3,1.3,0.3,2c0,0.6-0.1,1.2-0.2,1.7
		c-0.1,0.9-0.4,2-0.3,3c0.7,0,1.7-2.4,2.1-3c0.7-1,1.7-2.1,2.7-2.8c1-0.8,1.8-1.2,3.1-1.2C290.5,42,292.3,42.1,292.9,43.3
		C292.9,43.4,292.7,42.9,292.9,43.3z"/>
	<path class="st1" d="M301.6,57.9c-2.9,0-8.9-1.7-7.2-5.7c1.6-3.6,5.7-4.8,9.1-5.7c0.8-0.2,1.6-0.6,2.4-0.6c1.3,0,1.2,0.1,1.7-1.2
		c0.3-0.8,0.6-1.6,1.6-1.1c0.8,0.3,1.4,1.2,1.8,1.9c0.4,0.9,0.5,1.7,0,2.6c-0.2,0.4-0.5,0.7-0.7,1.1c-0.2,0.4-0.1,0.6-0.1,1
		c-0.1,0.8-0.7,1.4-1.1,2.1c-0.5,0.9-0.7,1.9-1.1,2.8c1.6-0.8,3.2-1.7,4.7-2.6c0.7-0.4,1.4-0.8,2.2-1.1c0.8-0.4,1.4-0.7,1.8,0.4
		c0.2,0.5,0,0.9-0.3,1.4c-0.4,0.7-0.8,1.4-1.3,2c-0.9,1.3-1.8,2.2-3,3c-1.3,0.9-2.5,1.8-3.8,2.7c-1,0.7-2.2,1.3-3.2,2.2
		c-1,0.9-1.3,3.3-1.7,4.6c-0.5,1.6-1.1,3.2-1.7,4.7c-0.6,1.5-1.3,2.9-1.8,4.5c-0.5,1.6-1,3.4-1.9,4.8c-1.8,2.8-4.7,3.4-7.8,2.9
		c-2.8-0.5-6.6-0.7-7.8-3.9c-1.2-3.3,1.9-6.7,3.9-8.9c1.1-1.2,2-2.5,3.1-3.7c1.2-1.4,2.8-2.4,4.1-3.7c1.4-1.3,3-2.3,4.7-3.3
		C300,60.3,301.3,59.9,301.6,57.9C301.5,57.9,301.5,58.3,301.6,57.9z M298.3,67.1c-1.8,0.5-2.9,1.9-4.4,3c-1.2,0.9-2.2,2.1-3.3,3.2
		c-1.6,1.5-7.2,5.8-4.1,8.2c1.1,0.9,3.1,0.3,4.2-0.3c1.5-0.7,2.7-2.1,3.5-3.6c0.9-1.6,1.3-3.4,2-5.1C296.9,70.8,297.7,69,298.3,67.1
		C297.4,67.4,298.3,67.3,298.3,67.1z M297.5,54.6c1.7-0.7,3.4-1.1,4.9-2.1c0.7-0.5,1.5-1,2.1-1.6c0.2-0.2,1.4-1.7,1.2-2.1
		c-0.5-0.6-1.6,0.4-2.1,0.6c-0.9,0.4-1.8,0.7-2.7,1.2C299.2,51.4,297.4,52.4,297.5,54.6C297.8,54.4,297.5,53.9,297.5,54.6z"/>
</g>
<g>
	<path class="st1" d="M51.8,79.1c-1,0.1-1.1,0-1.2,1c0,0.2-0.1,0.5,0,0.7c-0.1,0.3-0.1,0.4,0,0.4c0.1,0,0.1,0,0.2,0.1
		c0.1,0.3,0.3,0.3,0.3,0.6c0,0.3-0.5,0.8-0.7,1.1c-0.6,0.9-1.2,1.8-1.9,2.6c3,0.4,4.2-3.5,6.8-4.5c0.8-0.3,3.9-0.7,3.3,0.7
		c-0.2,0.6-1.1,1.2-1.5,1.6c-0.7,0.8-1.4,1.6-2.1,2.4c1.1-0.4,2.2-0.6,3.2-1.3c1.3-1,2.5-2.3,3.9-3.1c1-0.5,3.1-1.1,2.2,0.7
		c-0.4,0.7-0.8,1.3-1.2,2c-0.3,0.6-1.1,1.3-0.6,1.8c0.5,0.5,1.3-0.5,1.8-1c0.5-0.5,0.9-1.1,1.3-1.7c0.7-1,1.4-2,2.6-2.4
		c0.9-0.3,2.9-0.2,2.1,1.1c-0.8,1.2-2.1,2.3-3.1,3.4c1.8,0.2,2.8-0.8,4-2c1-0.9,2-2.4,3.5-2.5c2.8-0.2-1.6,3.4-0.9,4.3
		c0.7,1,3.8-2.4,4.3-2.9c0.5-0.4,1.7-1.4,2.3-1.2c1,0.4-0.4,1.9-0.6,2.5c-0.4,2.1,2.6-0.4,3.5-0.9c2.6-1.3,5.3-1.2,8.1-1.1
		c5.3,0.2,10.5,0.3,15.8,0.5c4.8,0.2,9.5,0.7,14.3,0.9c6.6,0.2,13.2,0,19.8-0.1c13.1-0.4,26.2-0.9,39.3-0.7
		c16.5,0.2,33,0.5,49.4,0.6c3.6,0,7.2,0.1,10.8,0c2.4,0,4.7-0.2,7.1-0.3c0.6,0,2.2-0.4,2.7,0.1c0.5,0.5,0.5,2.6,0.6,3.3
		c0.3,1.3,1,0.8,2.1,0.5c1-0.3,2-0.8,3-1.2c2.1-0.9,4.2-2,6.3-2.8c0.7-0.3,2-0.4,1.3-1.3c-0.5-0.7-2.1-1.1-2.9-1.5
		c-1.1-0.5-2.2-1-3.3-1.4c-1.8-0.7-3.3-1.9-5.1-2.7c-1.5-0.7-1.4,0.5-1.5,1.7c-0.1,0.8,0,2.1-0.3,2.8c-0.4,0.9-2,0.9-2.8,0.9
		c-1.3,0-2.6,0.1-3.9,0.1c-10.2,0.1-20.4-0.2-30.6-0.1c-16.2,0.1-32.4-0.4-48.6-0.2c-11.8,0.1-23.6,0.5-35.5,0.6
		c-4.2,0-8.4,0.1-12.5-0.1c-5.1-0.3-10.1-0.4-15.2-0.7c-5.2-0.2-10.5-0.2-15.6-0.7c-1.2-0.1-1.9-1.2-2.7-2c-0.5-0.5-0.5-0.7-1.1-0.5
		c-0.2,0.1-0.6,0.4-0.8,0.6c-0.7,0.7-0.1,0-0.1,0.7c0,0.3,0.3,0.4,0.1,0.7c-0.4,0.6-1.8,0.1-2.3-0.2c-1.4-0.7-2.3-2.2-3.4-3.3
		c-0.4-0.4-1.2-1.3-1.7-1.1c-0.6,0.2-0.3,0.7-0.1,1.1c0.4,0.8,1.4,1.7,1.6,2.6c0.3,1.3-1.3,0.6-1.9,0.3c-1.2-0.7-2.2-1.7-3.2-2.6
		c-0.5-0.4-1.4-1.7-2.1-1.4c-0.8,0.5,0.1,1.8,0.5,2.2c0.4,0.6,1.5,1.7,0.4,2.1c-1,0.3-1.8-0.4-2.4-1c-0.7-0.8-1.4-1.7-2-2.6
		c-0.6-0.8-1.1-1.8-2-2.3c-0.5,2,0.6,2.9,1.5,4.5c0.7,1.3-0.9,1.4-1.9,1.1c-1.1-0.3-2-1.2-2.7-2c-0.4-0.4-1.3-2-2-1.5
		c-0.5,0.3,0,1.4,0.1,1.8c0.2,0.6,1.1,1.5,0.5,2.1c-0.4,0.4-1.7,0-2.2-0.1C55,78.5,54,77.4,53,76.3c-0.5-0.5-3-3.5-3-1.4
		c0,0.8,0.9,1.7,1.4,2.3C51.7,77.6,52.9,79,51.8,79.1z"/>
</g>
</svg>
