<?xml version="1.0" encoding="utf-8"?>
<!-- Generator: Adobe Illustrator 19.2.1, SVG Export Plug-In . SVG Version: 6.00 Build 0)  -->
<svg version="1.1" id="Layer_2" xmlns="http://www.w3.org/2000/svg" xmlns:xlink="http://www.w3.org/1999/xlink" x="0px" y="0px"
	 viewBox="0 0 341 184" style="enable-background:new 0 0 341 184;" xml:space="preserve">
<style type="text/css">
	.st0{fill:#FFFFFF;}
</style>
<path class="st0" d="M64,100.3c1.4-3.7,1.6-7.3,2.5-11.2c0.9-3.8,2.1-7-1.6-9.5c-1.5-1.5-3.3-1.4-4.8,0.1c-1,1.1-1.4,2.6-2.1,3.9
	c-1,1.8-2.1,3.5-3,5.4c-3.1,8.6-6.6,17.2-9.8,25.8c-3.1,8.4-4.7,17.2-6.8,25.8h-0.1c-0.9-4.2-0.8-8.8-1.1-13.1
	c-0.3-4.5-0.4-9-0.6-13.6c-0.4-8.9-0.2-17.9-1.9-26.6c-0.2-0.7-0.6-0.7-1.2-0.1c-1.2,0.6-2.3,5.2-2.6,6.4c-0.7,2.6-0.9,5.5-1.5,8.1
	c-1.1,5.3-2.6,10.4-3.8,15.6c-1.3,5.3-2.6,10.5-3.8,15.8c-1.1,4.3-1.5,9.7-4,13.5c0-4.9-0.9-9.9-1.2-14.8
	c-0.3-5.1-0.5-10.3-0.6-15.4c-0.1-9.3,0.5-18.7,1-28.1c0-0.4-0.1-0.9-0.4-1.4c-0.3-0.8-1.2-1.4-2-0.8c-0.8,0.5-1.9,1-2.3,1.8
	c-1,3-1,6.2-1.3,9.2c-0.4,3.5-0.6,7-0.9,10.5c-0.5,6.5-0.7,13-0.6,19.6c0.1,6.5,0.2,13,0.5,19.4s-0.2,14.1,2.5,20.1
	c0.2,0.4,0.5,0.8,0.8,1.1c7.3,4.9,13.3-13.9,15.2-17.8c0.8,5.5,0.5,11.1,2.6,16.3c0.3,0.4,0.6,0.7,0.9,1c1.9,1,4.7,0.2,6.1-1.3
	c5.6-5.6,8.4-13.5,11-20.7c3-8,5.3-16.2,7.7-24.4c0.9-3.2,1.8-6.4,2.8-9.6C60.5,107.5,62.6,104,64,100.3z M70.9,96.4
	C71,96.3,71,96.1,70.9,96.4L70.9,96.4z M86.2,76.2c0-0.5-0.2-1.1-0.6-1.5c-0.7-1.5-8.9,6.5-9.6,7.3c-2,1.8-3.2,4.1-3.7,6.7
	c-0.4,1.7-1.2,3.7-1.2,5.5h0.6c-0.3,0.8-0.5,1.6-0.7,2.4c-0.8,3.3-1,6.7-1.6,10.1c-0.4,2.5-0.9,4.8-0.9,7.4
	c-0.7,2.9-1.7,5.9-1.7,8.9c0,3.1-0.6,6.3-1,9.4c-0.7,5.2-1.5,10.4-2.3,15.6c-0.5,3.1-0.9,6.2-1.4,9.3c-0.8,5.2-2.8,9.5-4.9,14.2
	c-0.4,0.7-0.2,1.6,0.6,1.8c0.1,0.1,0.2,0.1,0.4,0c1-0.8,1.8-1.7,2.8-2.6c1.1-1,1.4-0.9,2.6-1.4c1.8-0.8,4.5-2.4,5.9-3.9
	c4.2-4.9,4.3-12.5,5.3-18.7c1.3-8.2,1.7-16.4,2.6-24.6c0.9-8,2.4-15.8,3.5-23.8c0.5-3.9,1.2-7.7,2-11.5
	C83.6,82.9,85.2,79.7,86.2,76.2z M104.7,161.3c2.7-1,5.4-1.9,8.2-2.4c1.7,0,3.4,0.3,5.1,0.3c0.8,0.1,0.7-0.7,0.5-1.1
	c0-0.1-0.1-0.2-0.2-0.3c-0.5-0.3-1-0.5-1.4-0.8c-0.3-0.3-0.2-0.7-0.6-0.9c-2.9-1.1-4.9-4-7.8-5.3c-2.5-1-6.2,0.2-8.6,1
	c-1.9,0.6-3.7,1.3-5.5,2.1c-1,0.3-1.9,0.5-2.9,0.8c2.9-10.3,2.8-21.1,3.6-31.6c0.4-5.3,0.7-10.9,2-16.1c0.7-2.7,0.8-5.5,1.4-8.2
	c0.5-2.7,2.1-5.3,1.5-8.1c0.2,0.1,0.9-6.1,0.9-6.4c-0.2-2.9-2.4-3.8-5.1-3.3c-3.3,0.3-3.8,6-4.4,8.5c-0.6,2.4-1.1,4.8-1.7,7.2
	c-1.7,7-2.6,14.3-3.6,21.4c-1.1,8.4-2.2,16.9-3,25.3c-0.3,3.8-1,7.5-1.4,11.2c-0.2,2.8-1.1,7.5,0.6,9.9
	C87.9,171.5,98.8,164.1,104.7,161.3L104.7,161.3z M225,127.2c-2.7-9-7.5-17-10.3-25.9c-0.4-1.3-0.4-2.7-0.2-4
	c0.4-3.9,1.8-8.6,5.1-11.1c1.8-1.4,7.9-4,9.8-2.3c1,0.9-0.3,4.9-0.6,6.1c-0.4,2.2-0.9,4.3-1.7,6.4c-1.7,4.3-3.5,9.1-6.1,12.9
	c-0.4,0.6-0.5,1.2-0.5,1.8c0.1,0.7,0.3,1.4,0.5,2c0.2,0.5,0.5,0.8,0.6,0.8c1.8,0.8,4.1,2.2,5.7,0.4c0.2-0.4,0.4-0.8,0.6-1.2
	C235,106,242,96,237.6,85.7c-1.8-4.2-6.1-9-11-9.1c-2.7,0-4.9,1.6-7.1,2.7c-2.4,1.3-4.9,2.3-7.3,3.8c-4.1,2.5-8.3,6-9.2,11
	c-1,5.3,0.3,11,2.1,15.9c1.8,5.1,4.3,9.9,6.9,14.6c2.8,4.9,5.5,10,5.6,15.7c0.1,6.5-3.9,11.1-7.9,15.7c-2,2.3-3.9,4.8-5.9,7.2
	c-1.5,1.8-3.8,6-6.4,6c-4.5-0.2-1-8.7,0.4-10.5c1.9-1.9,3.4-4.3,5.3-6.2c0.8-0.8,1.7-1.6,2.7-2.2c1.1-0.6,2.5-0.9,3.4-1.8
	c1.5-1.7,3.1-3.3,4.6-4.9c0.6-0.9,1-1.9,1.5-2.8c0.1-0.3,0.1-0.6,0-0.8c-0.2-1-0.4-2.1-0.9-3c-2.5-3.5-7.4-1.1-9.9,1.1
	c-3.9,3.6-7.4,7.7-10.1,12.3c-2.5,4.2-5.9,9.2-6.3,14.1l-0.1,0.1v1.5c0.7,1.8,0,3.4,1.5,4.9c1.3,1.3,3.2,2,5,2.3
	c4.7,0.8,8.9-0.9,13.1-2.9c8-3.7,13.5-9.8,17.6-17.6c2.2-4.2,3.5-7.7,3-12.4C227.8,135.9,226.3,131.5,225,127.2z M266,141.4
	c-1.6-1.4-3.6,2.2-4.5,3.1c-1.6,1.5-3.6,2-5.4,3.2c0.2-0.6,0.2-1.2,0.5-1.7c-0.2-0.1-0.4-0.2-0.5-0.2c0.1-0.2,0.1-0.3,0.1-0.5
	c0,0,0,0.1,0,0s0,0,0,0c0-0.1,0-0.3,0-0.5c0.7-2.3,1-4.2,0.9-6.6c0-0.8-0.7-4.5,0.2-4.8v-0.5c-0.6-1.6-0.7-3.4-2.2-4.5
	c-1.6-1.2-4-0.9-5.9-1.1c-1-0.1,0-6.7,0.5-7.7c1.5-1.5,1.5-5.7,1.8-7.7c0.4-2.7,0.8-5.3,1-8c0-0.2-0.1-0.5-0.2-0.8
	c-0.5-1,0.1-4.2,0.1-5.5c-0.1-2.5-1.2-4-3.1-4.5c-1.1-0.4-1.8-1.3-2.6-2c-0.7-0.7-1.8-0.8-2.4,0.1c-0.3,0.4-0.4,0.8-0.5,1.2
	c-2.2,14-4.8,27.9-7.6,41.9c-0.6,3.2-1.4,6.4-1.9,9.6c-0.5,2.8-1.4,5.6-1.5,8.4c-0.1,1.3-0.5,2.9-0.4,4.2s0.4,2.2,0.2,3.6
	c-0.1,1.3,0.2,2.5,0.2,3.8c0,1.6-0.7,2.5,0.4,4c1.2-0.2,2.3-0.6,3.5-1c0.6-0.9,1.2-2,1.6-3c1.3-3.9,1.9-7.9,3-11.8
	c0-0.3,0-0.7-0.1-1c0.4-1.7,0.9-3.4,1.5-5.1c0.4-1.4,1.5-3.4,1.5-4.7c-0.4-1.7,1.5-4.2,2.5-5.5c0.1-0.1,0.3-0.3,0.6-0.5
	c-0.1-0.2-0.1-0.5,0-0.7c0.3-0.8,1.4-1.4,2.2-1.4c1.1,0,1.1,0.2,1.3,1.3c0.4,2.4-0.9,4.6-1.7,6.7c-1,2.3-1,5.3-0.5,7.7
	c0,0.7,1,0.3,0.3,1c0.8,1.9,1.5,3.4,3.7,3.8c2.2,0.5,6.7-0.3,8.3-2c1.2-1.2,2.3-2.4,3.3-3.8C265.1,146.4,267.2,142.6,266,141.4z
	 M274.3,137.5v-0.2l-0.2,0.2H274.3z M272,125.9c0.1,0,0.3,0.1,0.5,0.2c0.2,0.2,0.6,0.4,1,0.5c0.5,0.5,1.4,0.3,2.1,0.4
	c0.3-0.1,0.5-0.3,0.7-0.5s0.3-0.4,0.3-0.6V124c-0.1-0.4-0.2-0.7-0.3-1.1c0-0.1-0.1-0.1-0.1-0.2c-0.2-0.3-2-1-2.5-1h-0.5
	c-0.3-0.2-1.1-0.2-1.5-0.3l-0.2,0.1c-0.2,0.1-0.4,0.3-0.5,0.5c-0.5,0.7-0.7,2.1-0.2,2.8C271.2,125.3,271.6,125.7,272,125.9z
	 M274.3,136.8h-0.2c0,0.1,0.1,0.2,0.2,0.3V136.8z M305.7,157.3L305.7,157.3l-0.5-0.1l0.1,0.2C305.5,157.4,305.6,157.4,305.7,157.3z
	 M306.8,157.4c0,0-0.1-0.1-0.2-0.1c0.1,0.2,0.2,0.3,0.5,0.3C306.9,157.5,306.8,157.4,306.8,157.4z M328,105l-0.4-0.4
	c0-0.1,0-0.2,0-0.4c0-0.1,0,0,0,0c0.1-0.6-0.1-1-0.1-1.5c-0.1-0.2-0.1-0.5,0-0.9c0.1-0.3,0.1-0.5,0.2-0.8v-0.7
	c-0.1-0.1,0-0.2,0.2-0.4c0.1-0.5-0.3-1.6,0-2c-0.3-0.3-0.6-0.7-0.9-1c-0.3-0.1-0.7-0.2-1-0.4c-0.1,0-0.2-0.1-0.2-0.2
	c-0.1,0-0.2-0.1-0.3-0.2h-0.2c-0.3-0.1-0.4-0.3-0.7-0.3c-0.9-0.5-2.5-0.3-3.5-0.5c-0.6-0.2-1.1-0.2-1.7-0.2l-0.2,0.1
	c-0.6,0.6-0.5,2.5-0.9,3.3c-0.2,0.3-0.4,0.5-0.5,0.8v0.1c0,0.8-0.6,1.5-0.7,2.3c0,0.3-0.1,0.7-0.1,1c-0.1,0.3-0.2,0.7-0.4,1.2
	c0,0.4,0,0.7-0.1,0.9c-0.2,0.4-0.2,0.8-0.1,1.2c0,2-1.8,4.3-1.8,6.4v0.2c0,0.2-0.1,0.3-0.2,0.5c0,0.3-0.1,0.5-0.1,0.8
	c-0.1,0.2-0.2,0.4-0.3,0.7c-2.7-0.9-5.4-1.7-8.4-2.1c-2.7-0.4-5.3-0.4-8-0.4c-0.5,0-1.8-0.1-2.2-0.4c-0.1-0.1-0.2-0.2-0.1-0.3
	l0.3-0.5c0-1.3,0.9-2.4,0.9-3.7c0,0,0.2-1.5,0-1.5c1-1.5,0.1-3.4-1-4.5l-0.8-0.5c-0.4-0.2-0.7-0.3-1.1-0.5c-0.5-0.2-1-0.3-1.5-0.5
	c-0.8-0.3-1,0.4-1.7,0.6h-0.2c-0.3,0.3-0.4,0.6-0.3,1c0,0.7-0.7,1.2-0.9,1.8c-0.3,0.5-1.1,2.2-1.1,2.6c-0.1,0.6-0.2,1.2-0.4,1.8
	c-0.1,0.3-0.3,0.7-0.5,1c-0.2,0.1-0.2,0.2-0.1,0.5c0,0.6-0.4,0.8-0.3,1.5c-0.1,0.4-0.3,0.7-0.6,0.9c-0.2,0.4-0.2,1.2-0.8,1.2h-0.5
	c-0.2,0.1-0.4,0.2-0.5,0.2c-2.1,0.5-4.2,0.8-6.3,1.3c-0.9,0.2-1.8,0.5-2.6,0.8c-1,0.3-2.8,1.1-3.8,1.1c-0.2,0.1-0.3,0.2-0.5,0.5
	c-0.2,0.5-0.5,0.8-0.5,1.4c-0.3,0.6,1,1,1,1.4c0.3,0.6,0.5,1.2,0.8,1.7c1.8,0,3.4-0.2,5.2-0.5c0.9-0.2,3.8-0.1,4.4-0.7
	c0.4,0.1,0.9,0,1.3,0.1c0.2,0,0.3,0.1,0.3,0.4c-0.1,0.6-0.6,1.4-0.6,2c0.1,1-0.7,2.1-0.5,2.8l-0.1,0.1c-0.1,0.2-0.2,0.5-0.3,0.7v1.1
	c0,0.2-0.1,0.4-0.3,0.5c-0.1,0.4-0.1,0.7-0.2,1.1c-0.2,0.2-0.3,0.5-0.3,0.6c0.3,1.5-1.3,4-1.6,5.6c-0.2,1-1,3.1-0.8,4
	c0,0.4-0.5,0.6-0.4,1.1c0.2,0.5,0,1.4-0.1,1.8c-0.2,0.9-0.6,1.7-0.8,2.5c-0.2,0.2-0.6,2.4-0.7,2.8c0,0.1,0,0.2-0.1,0.2l0,0
	c-0.2-0.1-0.3-0.1-0.5,0c-0.1,0.1-0.2,0.3-0.3,0.5c-0.1,0.1-0.1,0.1-0.2,0.1l-0.2,0.4l-0.2,0.2c-0.1,0-0.1,0-0.2,0.1
	c0.1-0.1-0.6,0.7-0.6,0.7l-0.1,0.2c-0.2,0.1-0.4,0.2-0.5,0.4s-0.2,0.4-0.4,0.5c-0.2,0.1-0.5,0.3-0.6,0.5c0,0.2-0.1,0.2-0.3,0
	c-0.1,0.1-0.1,0.1-0.2,0.2c0-0.1,0-0.1-0.1-0.2h-0.1c-0.1,0-0.1,0-0.1,0.1c-0.1,0.1-0.1,0.1,0,0.1c0,0,0,0.1-0.1,0.1V151
	c-0.1,0.1-0.5,0.5-0.6,0.5c0,0.1-0.1,0.1-0.1,0.2c-0.2,0.2-0.4,0.3-0.5,0.5c0,0.1-0.4,0.5-0.5,0.6c-0.3,0-0.5,0.4-0.7,0.5
	c-0.1,0-0.1,0.1-0.2,0.1H269v-0.1c0-0.1,0-0.1-0.1-0.2c0.1-0.1,0.1-0.2,0.1-0.4h-0.3c-0.1,0,0,0,0.1-0.1s0.1-0.2,0.2-0.3v0.1v0.1
	c0.1,0,0.1-0.1,0.2-0.1h0.1c0.1,0.1,0.1,0.1,0.1,0.2c0.1,0,0.2-0.1,0.3-0.2v-0.5c0-0.3,0.4-0.4,0.4-0.7c0-0.1,0-0.5,0-0.5h0.2
	c0,0.1,0,0.1,0.1,0.1V150c0.2-0.2,0.3-0.3,0.5-0.5v-0.2l0.1-0.1c0.3,0,0.1-0.9,0.5-1v-0.1c-0.1-0.1,0-0.1,0.1-0.1
	c0-0.3,0.5-0.5,0.5-0.8l0.2-0.2c0.1-0.2,0.1-0.4-0.1-0.5h0.2c0.2-0.2,0.2-0.3,0.2-0.3l0.1-0.4v-0.2l0.2-0.4c0-0.1,0-0.1,0.1-0.1
	v-0.5c0.1-0.3,0.2-0.6,0.4-0.9v-0.3c0.1-0.2,0.2-0.4,0.3-0.6v-0.6l0.2-0.4v-0.1c0.1-0.1,0.1-0.2,0.2-0.4c0.1-0.1,0.1-0.2,0.1-0.4
	c-0.1,0-0.1-0.1-0.1-0.2c0.1-0.1,0.1-0.1,0-0.2H274c0-0.2,0.2-0.3,0.2-0.5v0.2h0.3v-0.3c-0.1,0-0.1-0.1-0.1-0.3h-0.1
	c-0.2,0-0.3-0.1-0.4-0.2c-0.1,0-0.1,0-0.1-0.1V139c0.1-0.1,0.1-0.1,0.1-0.2c-0.1,0-0.1,0-0.1-0.1v-0.2c0.2-0.2,0.3-0.3,0.5-0.5
	c0.1,0,0.1,0,0.2-0.1c0-0.2,0-0.3-0.1-0.4c0-0.2,0.1-0.4,0.1-0.5c0.1,0,0-0.4,0.1-0.5c-0.2-0.2-0.2-0.3-0.1-0.5
	c0.1,0,0.1-0.1,0.1-0.2c0-0.2,0.1-0.4,0.1-0.5c0.1-0.1,0.1-0.2,0-0.3l-0.1,0.1c0-0.1,0-0.2,0.2-0.3v-0.1c0.1-0.1,0.1-0.3,0.2-0.4
	c0.2,0,0.3-0.1,0.3-0.3v-0.3c0.1-0.2,0.2-0.3,0.1-0.5l0.1-0.1c0.1-0.1,0.2-0.2,0.2-0.3v-0.3c0.1-0.2,0.1-0.4,0.1-0.6l0.1-0.1
	c0.1-0.3-0.3-1.5-0.5-1.9c0-0.3-0.1-0.8-0.4-1.1c0-0.1,0-0.2-0.1-0.4c-0.2-0.2-0.3-0.3-0.5-0.5c-0.1-0.1-0.6-0.4-0.7-0.5
	s-0.2-0.1-0.4-0.1h-0.2c-0.1-0.2-0.3-0.3-0.6-0.3c-0.5-0.1-1.1-0.3-1.4,0.3c-0.3,0.3-0.1,0.9-0.5,1c-0.1,0.2-0.1,0.4-0.1,0.5
	c-0.1,0.1-0.1,0.1-0.1,0.2l-0.2,0.1c-0.1,0.1-0.1,0.2-0.1,0.4c-0.3,0.3-0.4,0.8-0.5,1.1l-0.1,0.1v0.4c-0.1,0.4-0.2,0.6-0.4,0.8v0.5
	c-0.5,0.5-0.6,2.1-1,2.8v0.4c0,0.3-0.1,0.6-0.2,0.8c0,0.1,0,0.2-0.1,0.2c-0.3,0.9-0.3,2-0.4,2.9l-0.1,0.1v0.2
	c-0.2,0.2-0.1,1.1-0.3,1.5v0.6c-0.3,0.6-0.3,1.6-0.4,2.3c-0.2,0.2-0.3,0.4-0.3,0.7c0,0.2-0.2,2.5-0.5,2.5c0,0.3,0,0.8-0.1,1
	c0,1-0.2,2.1-0.2,3.1c0,0.8-0.2,1.6-0.2,2.4c0.1,0,0.1,0,0.1,0.1v0.3c0,0.1,0,0.1,0.1,0.2v0.1c0,0.4,0.1,0.6,0.3,0.6
	c0.2,0.1,0.4,0.2,0.5,0.3c0.4,0.1,0.6,0.2,0.6,0.2h0.6c0.2,0,0.4,0.1,0.4,0.2c0.5,0,1,0.1,1.5,0.2c0.1,0.1,0.1,0,0.1-0.1
	c0,0,0.4,0,0.5,0c0.1-0.1,0.3-0.1,0.5-0.1h0.4c0.1-0.2,0.3-0.4,0.5-0.6h0.1c0,0.1,0,0.1,0.1,0.1c0.1-0.1,0.2-0.2,0.3-0.3V155
	c0.2,0,0.3-0.1,0.5-0.3h0.2c0.2,0,0.4-0.1,0.5-0.3h0.1v-0.1l0.1-0.1V154c0.4-0.1,0.4-0.7,0.6-0.9c0.1,0,0.1,0,0.1-0.1
	c0.1-0.1,0.2-0.1,0.3-0.2c0-0.1,0-0.1,0.1-0.2v-0.1c0.1,0,0.2-0.1,0.2-0.3c0.1-0.1,0.8-1,0.9-1h0.2V151c0.1-0.1,0.1-0.1,0.2-0.2
	v-0.2c0.1,0,0.1,0,0.1-0.1c0.1-0.1,0.2-0.1,0.3-0.1h0.1v-0.2h-0.1c0,0.1,0,0.1-0.1,0.1V150h0.3c0.1,0,0.2-0.1,0.3-0.2
	c-0.7,2.6-0.8,5.9,0.1,8.4c0.5,1.3,2.2,5.3,4,5.3c0,0.1,0.1,0.2,0.2,0.2c0.8,0.5,3.9,1.9,4.7,1.1c0-0.2,0.1-0.3,0.4-0.3
	c0.4,0,0.8-0.2,1.2-0.2c0.2,0.2,1.5-0.1,1.7-0.2c1.1-0.4,3-0.7,3.6-1.7c0.5-0.6,1.7-0.9,2.4-1.4c0.6-0.4,1.3-1.3,2-1.6
	c0.2,0,0.4,0,0.5-0.1c1.8-1.4,3.9-2.7,5.5-4.3c0.2-0.2,0.3-0.3,0.5-0.4c0.2-0.1,0.3-0.2,0.4-0.3v0.1v0.3c0.1,0.4,0.3,0.6,0.5,0.6
	h0.4c0.3,0,0.5-0.1,0.7-0.4c0.2-0.2,0.4-0.2,0.7-0.2h0.2c0.4-0.2,0.8-0.3,1.2-0.5c0.2-0.1,0.8-0.6,1-0.6h0.5
	c0.2-0.1,0.5-0.2,0.9-0.5s0.7-0.6,1-1c0,0.1,0.1,0,0.3-0.2h0.1c-0.2,0.1,1-1,1.1-1c0.1-0.4,0.2-0.7,0.3-1.1v-0.4
	c0.4-0.7,0.4-1.3,0.3-2.1c0.1-0.1,0.2-0.2,0.2-0.3v-0.5c0.1-0.2,0.2-0.4,0.4-0.6c0-0.5,0.1-0.9,0.3-1.4c0.2-0.1,0.4-0.3,0.5-0.5
	c0-0.3,0.1-0.6,0.3-0.8c0.2-0.1,0.3-0.2,0.4-0.4c0.1-0.3,0.1-0.6,0.2-0.9c0.5-0.7,0.9-1.7,1.3-2.5c1.3-2,1.5-4.3,2.5-6.4
	c0.2-0.6,0.8-1.6,0.4-2.2c-0.1,0-0.1-0.1,0-0.1c0-1.3,1.2-2.6,1.2-4c-0.1-0.2,0-0.7,0-1l0.2-0.2c0.1-0.2,0.2-0.4,0.2-0.5
	c0-0.5,0.1-1,0.1-1.5c0.1-0.1,0.2-0.3,0.4-0.5l0.2-0.4c0.1,0,0.2-0.1,0.3-0.2c0.1-0.2,0.3-0.5,0.5-1c0.1-0.5,0.3-1.1,0.3-1.6
	c0.2-0.5,1-1.1,1.2-1.6c0.2-0.4,0.3-0.9,0.5-1.3c0.2-0.5,0.7-0.9,1-1.5c0-0.2,0-0.3,0.1-0.3c0.8-0.8,1.7-2.8,2.3-3.8v0.7
	c0-0.2,0.1-0.5,0.2-0.8c0-0.9,0.7-0.5,0.2-1.5v-0.3c0.4-1.1,0.4-2.4,0.4-3.5c-0.1-0.1-0.2-0.2-0.1-0.3v-0.1c-0.1,0,0-0.1,0.1-0.2
	L328,105z M273,139.9h0.4c0.1,0,0,0.1-0.1,0.2v0.1h-0.4C272.9,140,272.9,139.9,273,139.9z M273.4,140.6
	C273.4,140.7,273.3,140.7,273.4,140.6c-0.1,0.2-0.1,0.2-0.2,0.1v-0.3L273.4,140.6z M273.2,141.4l0.1-0.2c0,0.1,0,0.1,0.1,0.1
	c0,0.1,0,0.2-0.1,0.3c-0.1,0-0.1,0-0.1,0.1s-0.1,0.1-0.2,0c0-0.1,0-0.1-0.1-0.1C273.1,141.5,273.2,141.5,273.2,141.4z M272.5,143.2
	c0.1,0.1,0.1,0.2,0.1,0.3v0.1h-0.2c-0.1,0-0.1,0-0.1-0.1C272.4,143.3,272.5,143.2,272.5,143.2z M271.2,147.3
	C271.2,147.3,271.3,147.2,271.2,147.3c0.1-0.3,0.1-0.4,0-0.5c0-0.1,0.1-0.1,0.1-0.2h0.3v0.7c-0.1,0.1-0.1,0.1-0.1,0.2v0.1h-0.1
	c0,0.2-0.3-0.1-0.4-0.2L271.2,147.3z M271.1,147.9c0.1,0.1,0.1,0.2,0,0.2s-0.1,0.1-0.1,0.2h-0.1C270.9,148,271,147.9,271.1,147.9z
	 M270,149h0.2v0.3H270l-0.1-0.1C269.9,149.1,269.9,149.1,270,149z M269.4,149.9C269.4,149.9,269.5,149.9,269.4,149.9v-0.5l0.1-0.2
	v0.2c0.1,0.1,0.1,0.1,0.2,0.1c0.1,0.1,0.2,0.2,0.4,0.1c0.1,0.1,0.1,0.3-0.1,0.4h-0.1c-0.1-0.4-0.2-0.4-0.3,0h0.1
	c0.1,0.1,0.1,0.2-0.1,0.3C269.6,150.3,269.4,150,269.4,149.9L269.4,149.9z M268.5,151c0-0.2,0.2-0.4,0.2-0.6v-0.1l0.4-0.2v0.1
	l-0.2,0.2v0.3c0-0.4,0.3-0.1,0.4-0.1v0.1c0,0.1-0.1,0.2-0.4,0.2v0.2c-0.1,0.1-0.1,0.1,0,0.2c0.2,0,0.4-0.1,0.6-0.4
	c0,0.1,0,0.2,0.1,0.3c0.1,0.2,0,0.3-0.1,0.3v0.2c0,0.2,0,0.3-0.1,0.5c-0.2,0-0.3,0.1-0.3,0.2c0-0.2-0.2-0.4-0.2-0.5v-0.3h-0.1v-0.2
	c0-0.1-0.1,0-0.3,0.2C268.6,151.3,268.5,151.2,268.5,151L268.5,151z M268.5,152h0.2c0.2,0,0.2,0.1,0.2,0.3h-0.2
	C268.6,152.2,268.5,152.1,268.5,152z M271.1,155.5c-0.1-0.1-0.2-0.1-0.1-0.2c-0.1-0.1-0.1-0.1-0.1-0.2h0.2
	C271.2,155.3,271.2,155.4,271.1,155.5z M313.3,116.8c-0.3,1-1.3,3-1,4c-0.3,0.8-0.4,1.9-0.8,2.6c-0.1,0.1-0.2,0.2-0.2,0.4
	c-0.6,2.9-1.5,5.8-2.2,8.7c-0.6,2.4-1.1,5.1-2.1,7.3v0.3c-0.1,0.1-0.2,0.2-0.2,0.4c-0.4,0.8-1,2.6-1,3.5c-0.5,0.9-1.3,2.2-1.3,3.3
	c-0.2,0.4-0.3,0.9-0.4,1.5c-1.1,0.9-2.2,1.9-3.2,2.9c-1.5,1-2.9,2.1-4.3,3.1c-1.1,0.8-3.1,1.5-4,2.5c-1.2,0-2.4,1.6-3.4,2.2
	c-1.1,0.6-2.2,0.7-3.3,1.2c-0.8,0.2-3.1-2.5-2.5-3.1c-0.2-1.5,0.3-2.9,0.4-4.4c0.1-1.3,0-2.5,0.8-3.7v-0.2c0-0.3,0.1-0.5,0.2-0.7
	l0.1-0.1c0.2-1,0.3-2,0.4-3c0-0.1,0.3-1.2,0.2-1c0.2-0.6,0.4-1,0.5-1.3c0.2-0.4,0.2-0.7,0-1.1c0.4,0,0.5-0.5,0.5-0.8
	c-0.1-2.3,1.3-4.6,1.3-6.8c0.1-0.4,0.4-0.8,0.6-1.2c0.3-1.2,1.4-2.7,1.4-4c0.4-0.8,0.2-1.9,0.4-2.8c0.1-0.6,0.5-1.1,0.5-1.7
	c0.1-0.2,0.2-0.5,0.3-0.7c0.3-0.9,1.2-3.1,1.2-3.9c-0.2-0.4,0.1-1,0.2-1.5c0.1-0.6,0.5-1,1.1-1.1c0.2,0,0.6-0.1,1.1-0.2v-0.2
	c-0.2,0-0.3,0.1-0.5,0.1c0.2-0.2,0.2-0.3,0.2-0.3c0.3,0.1,0.6,0,0.8-0.2h0.1c0.2,0.1,0.4,0.1,0.6,0.2c0.6,0,1.5,0.2,2-0.1
	c0.2,0.2,0.4,0.3,0.7,0.2c0.6-0.2,1.2,0.3,1.9,0.2c0.4,0,0.8-0.1,1.3,0.1c0.4,0,0.6,0,0.8-0.1c0.4-0.4,2.7-0.4,3.1-0.4
	c0.9,0,3.1-0.1,3.8,0.2c0.2,0.2,0.5,0.2,0.7,0.1c0.3,0,0.5,0,0.8,0.1c0.3-0.1,0.5-0.1,0.7,0.1h0.2c0.4-0.2,0.7-0.2,1.1-0.1
	c-0.1-0.4-0.2-0.5-0.5-0.4c-0.1,0.1-0.2,0.1-0.4,0c-0.1-0.1-0.2-0.2-0.4-0.3l-0.1,0.1c-0.1-0.1-0.2-0.2-0.3-0.2l-0.2,0.4l-0.3-0.1
	c-0.2,0.1-0.7,0.2-0.9,0l-0.1-0.1c0.6,0,0.9-0.6,1.5-0.5c0.7,0.1,1.5,0.2,2.2,0.1C313.4,116.5,313.4,116.6,313.3,116.8z M310.1,160
	L310.1,160c-0.3-0.4-0.6-0.4-0.8-0.6c-0.2-0.3-0.4-0.4-0.7-0.5c-0.7-0.1-4.2,0.5-4.5,0c-0.3,0-3,0.1-3,0.3c-0.4,0.4-1.2,1.9-1.2,2.5
	v2.5c-0.1,0.1-0.2,0.3-0.2,0.5c-0.2,0.3,0.5,1.2,0.5,1.5v0.1c0.2,0.2,0.3,0.5,0.4,0.7c0.2,0.2,0.5,0.4,0.6,0.5
	c0.5,0.4,1.8,0.5,2.5,0.5c0.2,0.1,0.9,0,1.2,0c0.8,0,1.7-0.1,2.5-0.1c0.4-0.2,1-0.4,1.3-0.7l0.3-0.3c0.3-0.7,0.3-1.6,0.6-2.3
	c0.1-0.2,0.2-0.4,0.3-0.5c0-1,0.3-1.9,0.2-2.9c0.1-0.1,0.2-0.2,0.3-0.4C310.3,160.5,310.3,160.3,310.1,160z M115.2,62.3
	c0.1,0.2,0.3,0.5,0.5,0.7c4.4,2.9,8-8.4,9.1-10.6c0.5,3.3,0.3,6.6,1.6,9.8c0.2,0.2,0.3,0.4,0.5,0.6c1.1,0.6,2.8,0.1,3.6-0.8
	c3.2-3.2,3.9-7.9,5.5-12.1c1.9-5,4.3-10.1,5.8-15.2c1.2-4.3,2.9-8.2,4.5-12.4c0.7-2,0.8-3.8,1.3-5.9c0.5-2.4,1.5-4.5-0.8-6.2
	c-0.9-0.9-1.9-0.8-2.8,0.1c-1.3,1.5-2.2,3.8-3.1,5.5c-1.8,5.1-3.9,10.1-5.8,15.2c-1.9,5.1-2.9,10.4-4.2,15.7h-0.1
	c-2.1-10.4-0.1-21.4-2.2-31.8c-0.1-0.4-0.4-0.4-0.7-0.1c-1.6,0.8-2,6.4-2.3,7.9c-0.6,3.3-1.5,6.4-2.3,9.7c-0.7,3-1.5,6.1-2.2,9.1
	c-0.7,2.8-0.9,6.3-2.5,8.7c0-6.1-1-12.2-1.1-18.3c-0.1-5.5,0.3-11,0.6-16.5c0-0.2-0.1-0.5-0.2-0.8c-0.3-0.6-0.7-0.7-1.2-0.5
	c-0.4,0.3-1.1,0.6-1.4,1.1c-1,3.1-1,6.9-1.2,10.2c-0.3,4-0.6,8-0.5,12c0,4,0.1,8.1,0.3,12.1C113.8,53.6,113.5,58.5,115.2,62.3z
	 M142.7,42.3c-0.2,0.3-0.5,0.6-0.8,0.9c-0.4,0.5-1.1,1.2-1.5,1.6c-0.2,0.4-0.7,1-0.7,1.4l-0.1,0.1c-1.1,2.3-2,5.3-2.1,7.8
	c0,1.5,0.6,3,0.6,4.5c0.1,0.2,0.6,1.8,0.8,1.8c0.4,0.4,0.9,0.8,1.3,1.2c1.2,0.4,2.5,0.4,3.6,0.8c1,0,2.9-0.1,3.6-0.8
	c0.3-0.2,0.6-0.6,0.9-0.7h0.1c1.5-1.6,3.6-2.8,4.9-4.5c0,0,0.1,0,0.1-0.1c0.3-0.2,0.5-0.4,0.7-0.7v-0.1c0.3-0.1,0.4-0.5,0.6-0.7
	c0,0,0.1,0,0.1-0.1h0.1c0.1-0.3,0.3-0.5,0.5-0.7h0.1c0,0,0.1,0,0.1-0.1c0.1-0.2,0.3-0.4,0.4-0.6c0.1,0,0.1,0,0.2-0.1v-0.1
	c0-0.2,0-0.4,0.2-0.4l0.1-0.1c0,0,0,0,0.1-0.1c0.2-0.1,0.5-0.4,0.5-0.7c0.1,0,0.1,0,0.1-0.1v-0.1l0.6-0.7l0.1-0.1
	c0.2-0.1,0.4-0.4,0.5-0.6c0.4-0.2,0.7-1.8,0.8-2.1v-0.4c0-0.1-0.1-0.2-0.3-0.3l-0.1-0.1c-0.2-0.2-0.3-0.2-0.5-0.2h-0.2
	c-0.2-0.2-0.4,0-0.6,0c-0.1-0.1-0.2,0-0.3,0.1l-0.3,0.3c-0.1,0.1-0.2,0.2-0.2,0.4c-0.4,0.4-1,0.9-1.5,1.2c-0.2,0.2-0.4,0.5-0.7,0.7
	c-0.2,0.3-0.6,0.7-0.8,1c-0.3,0.3-0.7,0.9-1.1,1.1c-0.7,0.7-1.3,1.8-2.1,2.2l-0.1,0.1v0.1c-0.2,0.1-0.4,0.4-0.6,0.5h0.2
	c-0.2,0.3-1,1-1.4,1.2c-0.4,0.4-1,0.6-1.5,1c-0.1,0-0.2,0-0.2,0.1c-0.2,0.1-0.4,0.3-0.6,0.4c-1,0.4-2,0.2-2.9,0.5
	c-0.3,0-0.5-0.1-0.8-0.2h-0.1c-0.1-0.1-0.2-0.2-0.3-0.3h-0.1c-0.1-0.1-0.9-0.9-0.9-1.2c-0.3-0.5-0.4-1-0.4-1.6
	c0.1-0.2,0.2-0.3,0.3-0.4l0.6-0.1c0.1,0,0.1,0,0.1-0.1c0.1-0.1,0.1-0.2,0.2-0.3c0.2-0.2,0.5-0.3,0.7-0.4c0.9-0.5,1.9-1,2.8-1.5
	c1-1,2-2.1,3-3.1c0.1-0.1,0.2-0.4,0.3-0.5c0-0.3,0.4-1.1,0.5-1.3c0.1-0.3,0.1-0.6,0.1-0.8l0.1-0.1c0-0.1,0-0.2,0.1-0.2
	c0-0.3,0-0.7,0.1-1c0-0.1,0-0.2-0.1-0.2c-0.1-0.3-0.5-0.9-0.7-1.2c-0.4-0.5-1.4-0.8-1.9-1c0,0-0.1,0-0.1-0.1c-0.3-0.7-0.7,0-1-0.4
	C145.4,42.2,143,41.8,142.7,42.3z M144.6,46.5c0-0.1,0.7-0.1,0.8-0.1s0.1,0,0.1,0.1c-0.2,0.6-0.5,1.2-0.8,1.8
	c-0.5,0.5-0.6,1.5-1.2,1.8c-0.1,0.1-0.1,0.3-0.2,0.4c-0.4,0.3-0.8,0.7-1.2,1H142c-0.3,0.2-0.6,0.4-1,0.5c-0.1,0-0.2,0-0.2-0.1
	c0,0,0.1-0.1,0.1-0.2c0.5-0.5,0.8-2.2,1.2-2.9c0.6-1,1.2-1.5,2-2.3C144.1,46.6,144.7,46.5,144.6,46.5z M178.5,51.8
	c0.1,0,0.2,0.1,0.4,0.1v-0.3c0,0-0.1,0-0.1-0.1C178.7,51.6,178.6,51.7,178.5,51.8L178.5,51.8z M166,58.5c0.4,0.2,0.8,0.2,1.1,0
	c0.1-0.1,0.3-0.2,0.4-0.2c0.2,0,0.3-0.1,0.4-0.3h0.4c0.3-0.2,0.5-0.6,0.6-1c0.3-0.2,0.8-0.4,1-0.7c0.8-0.6,1.3-2,1.2-3l0.1-0.1
	c0,0,0,0.1,0.1,0.2c0.1-0.2,0.2-0.4,0.3-0.5c0.2-0.8,0.1-1.7,0.3-2.4c0.5-1.1,0.5-3.3,0.6-4.5c0.4-0.7,0.1-1.5,0.4-2.3
	c0,0,0-0.1,0.1-0.2c0.2,0,0.3-0.1,0.5-0.2c0.9-0.9,2.1-1.7,3.3-2.1c0.1,0,0.2,0.1,0.3,0.2c0,0.3,0.1,0.5,0.1,0.8
	c0,0.6,0,1.5-0.2,2.1c0,1.1-0.7,3-1.3,3.8c-0.2,0-0.5,1-0.4,1.1c0,0.6-0.7,2-0.9,2.7c-0.1,0.9-0.4,2,0,2.9c0.7,0.7,1.5,1.4,2.2,2.1
	c0.3,0.2,1.2,0.3,1.6,0.4c0.4,0,0.7,0,0.9-0.1c0.3-0.1,0.6-0.2,0.7-0.2c0.2-0.2,0.2-0.4,0-0.8c-0.2-0.3-0.5-0.4-0.8-0.4
	c-0.2-0.1-0.3-0.2-0.3-0.3c-0.2-0.3-1-0.7-1-1c-0.1-0.4,0.5-0.7,0.5-1l0.4-0.9l-0.1,0.1c0-0.2,0-0.3,0.1-0.4c-0.1,0-0.2,0-0.3-0.1
	v-0.1h0.2l-0.1-0.2c0.2-0.2,0.3-0.3,0.4-0.4c0,0,0.1,0,0.3,0.1v-0.4c0.1,0.1,0.2,0.1,0.2,0.2c0.2-0.3,0.1-0.9,0.6-1
	c0.1,0,0-0.3,0-0.3c-0.1,0-0.1,0-0.2,0.1c-0.1,0.1-0.2,0.2-0.3,0.2s-0.2,0-0.2-0.1c-0.1-0.4,0-0.7,0.4-0.8l0.2,0.1
	c0.2-0.2,0.1-0.6,0.4-0.7c0,0,0.1-0.1,0.1-0.2l-0.1-0.2c0.3,0.1,0.4,0.1,0.3-0.2v-0.2c0.2-0.3,0.2-0.7,0.4-1h-0.1v-0.2l0.4-0.5
	l-0.4-0.4c0,0,0.1,0,0.1-0.1c0.1-0.2,0.3-0.5,0.4-0.7v-0.1c-0.1-0.1-0.2-0.6,0-0.7c0.2-0.1,0.3-0.3,0.3-0.5c0,0.1,1.5-1.2,1.6-1.3
	c0.8-0.6,1.7-0.9,2.7-1.3c1.6,0-1.7,7.3-1.9,8c-0.5,1.5-2.3,5-1.7,6.5c0,1.4-0.1,2.7,0.5,4.1c0.2,0.3,0.3,0.5,0.4,0.7
	c0.4,0.7,1.6,1.3,2.2,1.8c1,0.5,2,0.3,2.9,0.7V63c0.2-0.2,1.4-0.3,1.6-0.1h0.1c0.4-0.4,1.3-0.7,1.8-0.7s1-0.6,1.6-0.6
	c0.4-0.5,0.9-1,1.2-1.6c0.1,0,0.2-0.4,0.3-0.8c0.7,0.1,1.4,0.3,2.1,0.3c1.2,0,1.7-1.1,2.5-1.5v-0.1c0-0.8,1.4-1.7,1.8-2.4
	c0-0.2,0.2-0.2,0.4-0.1c0.5,0.5,1.4,0.7,1.9,1.3c0.2,0.1,0.3,0.1,0.4,0.1v0.1c0.3,0.1,0.6,0.3,0.8,0.5c0.2,0.1,0.8-0.1,1-0.2
	c0.1-0.2,0.2-0.3,0.3-0.3c0.4-0.2,1.5-0.4,1.3-1l0.1-0.1c0.8,0,1.4-1.5,1.9-1.9c0,0,0.6-0.3,0.7-0.4c0.2-0.3,0.4-0.5,0.7-0.7
	c0-0.1,0.1-0.2,0.2-0.3c0.1-0.1,0.2-0.2,0.3-0.2c0.2-0.1,0.3-0.3,0.3-0.5c0.1-0.1,0.1-0.2,0.2-0.3c-0.3,2.1-0.6,4.3-0.9,6.4
	c-0.3,2.7-0.7,5.2-1.7,7.8c-0.9,2.5-0.4,3.8,0.2,6.2c0.1,0.2,0.2,0.3,0.5,0.4c5.7,1.1,6.4-14.3,7.1-17.8c0.6,0.7,1.3,1.3,1.8,1.9
	c0.3,0.3,0.2,0.2,0,0c0.6,0.6,1.2,1.2,1.7,1.9c1.1,1.2,4.6,3.9,6.6,2.9c0.3,0.3,0.6,0.6,0.9,0.9c1.2,0.4,2.5,0.4,3.6,0.8
	c1,0,2.9-0.1,3.6-0.8c0.3-0.2,0.6-0.6,0.9-0.7h0.1c1.5-1.6,3.6-2.8,4.9-4.5c0,0,0.1,0,0.1-0.1c0.3-0.2,0.5-0.4,0.7-0.7V56
	c0.3-0.1,0.4-0.5,0.6-0.7c0,0,0.1,0,0.1-0.1h0.1c0.1-0.3,0.3-0.5,0.5-0.7h0.1c0,0,0.1,0,0.1-0.1c0.1-0.2,0.3-0.4,0.4-0.6
	c0.1,0,0.1,0,0.2-0.1v-0.1c0-0.2,0-0.4,0.2-0.4l0.1-0.1c0,0,0,0,0.1-0.1c0.2-0.1,0.5-0.4,0.5-0.7c0.1,0,0.1,0,0.1-0.1v-0.1l0.6-0.7
	l0.1-0.1c0.2-0.1,0.4-0.4,0.5-0.6c0.4-0.2,0.7-1.8,0.8-2.1v-0.4c0-0.1-0.1-0.2-0.3-0.3l-0.1-0.1c-0.2-0.2-0.3-0.2-0.5-0.2h-0.2
	c-0.2-0.2-0.4,0-0.6,0c-0.1-0.1-0.2,0-0.3,0.1l-0.3,0.3c-0.1,0.1-0.2,0.2-0.2,0.4c-0.4,0.4-1,0.9-1.5,1.2c-0.2,0.2-0.4,0.5-0.7,0.7
	c-0.2,0.3-0.6,0.7-0.8,1c-0.3,0.3-0.7,0.9-1.1,1.1c-0.7,0.7-1.3,1.8-2.1,2.2l-0.1,0.1v0.1c-0.2,0.1-0.4,0.4-0.6,0.5h-0.1
	c-0.2,0.3-1,1-1.4,1.2c-0.4,0.4-1,0.6-1.5,1c-0.1,0-0.2,0-0.2,0.1c-0.2,0.1-0.4,0.3-0.6,0.4c-1,0.4-2,0.2-2.9,0.5
	c-0.3,0-0.5-0.1-0.8-0.2H230c-0.1-0.1-0.2-0.2-0.3-0.3h-0.1c-0.1-0.1-0.9-0.9-0.9-1.2c-0.3-0.5-0.4-1-0.4-1.6
	c0.1-0.2,0.2-0.3,0.3-0.4c0.2,0,0.4-0.1,0.6-0.1c0.1,0,0.1,0,0.1-0.1c0.1-0.1,0.1-0.2,0.2-0.3c0.2-0.2,0.5-0.3,0.7-0.4
	c0.9-0.5,1.9-1,2.8-1.5c1-1,2-2.1,3-3.1c0.1-0.1,0.2-0.4,0.3-0.5c0-0.3,0.4-1.1,0.5-1.3c0.1-0.3,0.1-0.6,0.1-0.8l0.1-0.1
	c0-0.1,0-0.2,0.1-0.2c0-0.3,0-0.7,0.1-1c0-0.1,0-0.2-0.1-0.2c-0.1-0.3-0.5-0.9-0.7-1.2c-0.4-0.5-1.4-0.8-1.9-1c0,0-0.1,0-0.1-0.1
	c-0.3-0.7-0.7,0-1-0.4c-0.5,0-2.9-0.3-3.2,0.1c-0.2,0.3-0.5,0.6-0.8,0.9c-0.4,0.5-1.1,1.2-1.5,1.6c-0.2,0.4-0.7,1-0.7,1.4l-0.1,0.1
	c-1.1,2.3-2,5.3-2.1,7.8c0,0.9,0.2,1.9,0.4,2.8c-2.7-2.5-4.8-5.4-6.3-8.9c2.6-0.6,5.9-2.8,7.5-5c0.7-1,2.7-5.6,0.3-6.1
	c-1.1-0.1-2.3-0.5-3.4-0.1c-1.2,0.5-3,2.4-4,3.3l-0.2-0.2c0.7-3.9,1.7-7.7,2.6-11.6c0.9-3.5,0.9-7.1,1.5-10.7c0.4-2.1,2.4-8,0.3-9.8
	c-1.9-1.7-5.4,0.7-5.9,2.6c-1.4,4.8-1.4,10.2-2.1,15.2c-0.8,5.4-1.9,10.8-2.8,16.1c-0.4,2.3-0.8,4.6-1.2,6.9c-1.6,1.2-3.4,3.5-4.2,4
	c-0.5,0-3.1,1.8-3.5,2.2c-0.1-0.3-0.1-0.8-0.1-1.1c0-0.1,0-0.1,0.1-0.2v-0.5c0.7-0.7,0.2-2.4,0.6-3.3c0.1-0.5,0.4-1,0.5-1.6
	c0.1-0.1,0.1-0.1,0.1-0.2c0-0.2,0.1-0.3,0.2-0.4v-0.1c0.1-0.2,0.2-0.5,0.2-0.8c0.2-0.2,0.3-0.4,0.2-0.7h0.1c0-0.5,0.2-1.3,0.4-1.8
	c0-0.2,0-0.4-0.1-0.5c0.1-0.3,0.1-0.7,0.2-1c0-0.5-0.3-0.8-0.8-0.8h-1c-0.2-0.1-0.3-0.1-0.5-0.1c0.1-0.1,0.3-0.3,0.4-0.4
	c0-0.3-0.1-0.5-0.1-0.8c-0.1-0.1-0.2-0.2-0.2-0.2c-0.4-0.2-1-0.3-1.5-0.2c-1.8,0-4,1.1-5.5,2.1c-1.2,0-3.2,1.8-3.9,2.5
	c-0.3,0.4-0.7,0.9-1.2,1.2v0.1c-1.1,1.7-2.1,3.4-2.4,5.3c-0.1,0.2-0.1,0.3-0.1,0.4c0.1,0.4,0.1,0.7,0.1,0.8s0.1,0.2,0.1,0.3
	c0.1,0.2,0.2,1.4,0.1,1.6c0,0.4,0.5,1.5,0.7,1.9c0.2,0.2,0.4,0.4,0.5,0.7h0.1c-0.2,0.1-0.4,0.1-0.6,0.2c-0.1,0.1-0.1,0.2-0.2,0.2
	l0.2,0.2c0.1,0,0.2,0.1,0.1,0.2c-0.1,0.2-0.6,0.5-0.6,0.8c0,0.2-0.2,0.3-0.4,0.4c-0.2,0.1-0.4,0.1-0.6,0.2c-0.1,0.1-0.3,0.1-0.5,0
	c-0.3-0.3-2-1.7-2-2.1c-0.1-0.3-0.2-0.6-0.2-1c-0.2-1.3,0.6-3.1,1.2-4.3c0-1.5,1.5-2.8,1.5-4.3c0.9-1.7,1.4-4.2,1-6.1l-0.2-0.7
	l-0.1-0.1c-0.1,0-0.1-0.1-0.1-0.1c0-0.5-0.4-0.8-0.8-1c-0.6-0.3-1.9-0.9-2.7-0.8c-2.2,0-4.1,2-6.2,2l-0.1-0.1
	c-0.1-0.2-0.1-0.4,0-0.5s0.1-0.2,0.1-0.3c-0.1-0.4-0.3-0.6-0.6-0.6c-0.6-0.2-2.2-0.6-2.8-0.4c-0.2,0-1.2,0.3-1.2,0.5
	c-0.1,0.1-0.1,0.2-0.2,0.2c-0.9,0.6-2.1,0.8-2.8,1.6l-0.1-0.1c0-0.2,0-0.5,0.1-0.9c0.1-0.3-0.7-1.7-0.9-1.8s-0.3-0.1-0.4-0.1
	c-1.9,0.5-3.1,4.6-3.1,6.5c-0.9,2.2-0.7,6.3-2.4,8c-0.1,0.4-0.3,0.7-0.5,1c-0.6,0.3-1.3,1.6-1.5,2.2c-0.2,0.3-0.4,1.4,0,1.7
	C164.9,58.2,165.4,58.4,166,58.5z M229.2,51.9c0.5-0.5,0.8-2.2,1.2-2.9c0.6-1,1.2-1.5,2-2.3c0,0,0.4-0.1,0.5-0.1
	c0-0.1,0.7-0.1,0.8-0.1s0.1,0,0.1,0.1c-0.2,0.6-0.5,1.2-0.8,1.8c-0.5,0.5-0.6,1.5-1.2,1.8c-0.1,0.1-0.1,0.3-0.2,0.4
	c-0.4,0.3-0.8,0.7-1.2,1h-0.1c-0.3,0.2-0.6,0.4-1,0.5c-0.1,0-0.2,0-0.2-0.1C229.1,52,229.2,51.9,229.2,51.9z M222.1,42.5
	c1.2-1.1,2.6-2.1,4.2-3.1c-0.9,3.8-4.5,4.8-7.2,7C219.8,44.9,220.9,43.6,222.1,42.5z M193.6,55L193.6,55c0.3-0.4,0.3-0.9,0.6-1.2
	c0.2-0.1,0.3-0.2,0.5-0.2c-0.1-0.2-0.1-0.3,0.1-0.3c0,0,0-0.1,0.1-0.1c-0.1,0-0.1-0.1-0.1-0.3c0.1,0,0.2,0,0.3-0.2v-0.1l-0.1-0.1
	h-0.1c-0.1,0-0.1,0-0.1-0.1c0.4,0,0.6-0.2,0.6-0.6c0.2-0.4,0.5-0.8,0.8-1.2v-0.1c1-0.6,0.3-0.3,0.7-0.7c0,0,0.1,0,0.1-0.1
	c0.5-0.5,1.4-2.4,2-2.6V47c0-0.3,0.3-0.7,0.5-0.9c0.1-0.1,0.2-0.2,0.2-0.2c0.2-0.3,0.3-0.6,0.5-0.8c0.3-0.5,1.4-0.8,1.8-1.3
	c0.1-0.2,0.2-0.3,0.5-0.2c0.2,0,0.3-0.1,0.4-0.3c0.1-0.1,0.2-0.3,0.4-0.4c0,0,0.1,0,0.2-0.1c0.3,0,0.6-0.1,0.8-0.2
	c0,0,0-0.1,0.1-0.1c-0.8,1.5-1.9,2.8-2.7,4.3c0,0.1-0.2,0.9-0.2,1c-0.8,0.8-0.4,2.3-0.8,3.2v1.2c0,0,0,0.1,0.1,0.3
	c0,0.2,0,0.4,0.1,0.7c-1.6,1.6-3.1,3.8-5.6,3.8c-0.6,0.1-1.1,0-1.5-0.4c-0.1-0.1-0.2-0.5-0.2-0.6c-0.1-0.2-0.2-0.3-0.2-0.6
	C193.4,55.2,193.4,55.1,193.6,55z M178.9,50.6c0.1,0.1,0,0.3-0.1,0.4c0,0-0.1,0-0.1-0.1C178.8,50.8,178.8,50.7,178.9,50.6z
	 M177.9,52.4c0.2,0,0.3,0,0.4,0.2c-0.1,0.1-0.2,0.1-0.4,0.1C177.9,52.6,177.9,52.6,177.9,52.4C177.8,52.5,177.8,52.5,177.9,52.4z
	 M219.3,55.9C219.2,55.9,219.2,55.9,219.3,55.9C218.9,55.6,219.1,55.8,219.3,55.9z"/>
<g>
	<path class="st0" d="M171.1,131.3c-0.7-4.4-2.1-8.5-4-12.2c-1.8-3.7-4-7.1-6.4-10.3c-2.3-3.2-4.9-6.1-7.3-8.9
		c-2.5-2.8-5.1-5.6-7.7-8.2c-4.9-5-9.9-9.8-15-14.6c-0.2-0.2-0.9-0.3-1.1-0.3c-8.4-0.6-8.6,5.4-7.9,8.6c0.1,0.5,0.2,0.6,0.4,0.8
		c0.1,0.1,0.1,0.1,0.2,0.2l-0.1,0.4c0,0.3,0.3,0.9,0.3,1c0,0.1,0.1,0.1,0.1,0.2c0.2,4.9,0,9.8-0.3,14.8c-0.2,3.6-0.5,7.2-0.9,10.8
		l-1.1,9.7c0,0-0.1,2.2-0.3,5.4c-0.2,3.3-0.4,7.6-0.4,12c-0.2,8.7,0.5,17.3,0.7,16.6c0.2,1.8,0.4,3.5,0.8,5.1c0.3,1.6,0.6,3,1,4.2
		c0.8,2.5,1.6,4.1,2.2,4.6c0.7,0.5,1.2-0.1,1.6-2.3c0.4-2.1,0.6-5.8,1.2-11.3c0.8-6.5,2.1-14.3,3.3-20.5c1.2-6.3,2-10.9,2-10.9
		c0.4-3.8,0.9-7.6,1.3-11.5c0.4-3.7,0.7-7.5,1-11.3c0.1-1.6,0.2-3.2,0.2-4.8c0.5,0.5,1.1,1.1,1.6,1.6c2.5,2.6,4.9,5.2,7.3,7.8
		c2.4,2.7,4.7,5.3,6.7,8c4.1,5.4,7.2,11.2,8.1,16.9c0.1,0.6,0.1,1.3,0.2,1.9c0,0.6,0.1,1.3,0,1.9c0,1.2-0.2,2.5-0.5,3.7
		c0,0,0,0.4-0.2,1.1c-0.1,0.7-0.4,1.8-0.8,3c-0.8,2.4-2.5,5.5-4.9,8c-0.6,0.6-1.1,1.1-1.8,1.6c-0.6,0.5-1.3,0.9-2,1.3
		c-1.4,0.8-2.9,1.4-4.1,1.8c-2.5,0.8-4.2,1.1-3.8,1.1c-3,0.7-5.8,0.7-7.9,0.6c-1.1,0-2-0.2-2.8-0.3c-0.8-0.1-1.4-0.1-1.8,0
		c-0.8,0.2-0.8,1,0.9,2.7c0.4,0.4,1,0.8,1.7,1.2c0.7,0.4,1.5,0.9,2.5,1.2c1.9,0.8,4.5,1.4,7.6,1.5c1.8,0.1,3.8,0,5.8-0.2
		c2-0.3,4-0.8,6-1.5c1-0.4,2-0.8,3-1.3c0.5-0.2,1-0.5,1.5-0.8c0.5-0.3,1-0.6,1.4-0.9c1.7-1.2,3.3-2.6,4.6-4c2.6-2.8,4.4-5.7,5.4-7.9
		c0.5-1.1,0.9-2,1.1-2.6c0.3-0.6,0.3-1,0.3-1c0.6-2.3,1-4.6,1.2-7C171.6,135.9,171.4,133.6,171.1,131.3z"/>
	<g>
		<g>
			<g>
				<g>
					<path class="st0" d="M171.2,131.3c-0.1-0.2-0.1-0.1,0,0.5l0.1,0.4L171.2,131.3z"/>
					<path class="st0" d="M171.4,135.2c0.1,0.7,0.1,1.5,0.2,1c-0.1-0.7-0.1-0.9-0.2-1.6c0-0.6,0-1,0-0.9c0-0.2-0.1-0.9-0.2-1.2
						C171.3,133.3,171.4,134.2,171.4,135.2C171.5,135.5,171.5,135.3,171.4,135.2z"/>
					<path class="st0" d="M132.6,163.5l0.3,0.2C132.8,163.6,132.7,163.6,132.6,163.5z"/>
					<path class="st0" d="M154.3,151.2c-0.2,0.2-0.2,0.3-0.2,0.3C154.2,151.3,154.4,151.2,154.3,151.2z"/>
					<path class="st0" d="M157.5,146c-0.1,0.1-0.1,0.2-0.1,0.3C157.4,146.2,157.4,146.1,157.5,146z"/>
					<path class="st0" d="M132.6,163.5c0,0-0.2-0.1-0.4-0.2c-0.2-0.1-0.4-0.2-0.4-0.2C131.7,163.1,132.2,163.3,132.6,163.5z"/>
					<path class="st0" d="M171,143.1c0-0.2,0.1-0.4,0.1-0.5C171,142.7,171,142.9,171,143.1C171,143.1,171,143.1,171,143.1z"/>
					<polygon class="st0" points="147.9,164.9 148.1,164.9 148.4,164.8 					"/>
					<path class="st0" d="M158.8,160.5c-0.2,0.2-0.3,0.3-0.3,0.3c0.1-0.1,0.3-0.2,0.5-0.4C158.9,160.4,158.9,160.5,158.8,160.5z"/>
					<path class="st0" d="M170,145.6l0.1-0.3C170.1,145.4,170.1,145.5,170,145.6z"/>
					<path class="st0" d="M139.4,165.2c0,0-0.1,0-0.1,0C139.3,165.2,139.3,165.2,139.4,165.2z"/>
					<path class="st0" d="M166.9,118C166.9,118,166.9,118,166.9,118C167,118.1,167,118.1,166.9,118z"/>
					<path class="st0" d="M171,131.3l0-0.2c0,0,0,0,0,0L171,131.3z"/>
					<path class="st0" d="M159.4,135C159.4,135,159.4,135,159.4,135c0,0.3,0,0.3,0,0.2C159.4,135.2,159.4,135.2,159.4,135z"/>
					<path class="st0" d="M127.4,155.6c0.2-1.1-0.2,1.9,0.1,0.2C127.4,155.9,127.6,154.2,127.4,155.6z"/>
					<path class="st0" d="M170.9,143.4c0,0.2-0.1,0.3-0.1,0.5C170.9,143.7,170.9,143.5,170.9,143.4z"/>
					<path class="st0" d="M127.5,155.8L127.5,155.8l0-0.2C127.5,155.7,127.5,155.7,127.5,155.8z"/>
					<path class="st0" d="M148.1,112.4c0,0,0.1,0.1,0.1,0.2C148.2,112.6,148.2,112.5,148.1,112.4z"/>
					<path class="st0" d="M157.9,128.6l-0.1-0.4C157.8,128.4,157.8,128.5,157.9,128.6z"/>
					<path class="st0" d="M141.4,105.1c-0.2-0.2-0.2-0.3-0.5-0.5c0,0,0,0.1,0.1,0.1C141.1,104.7,141.2,104.9,141.4,105.1z"/>
					<path class="st0" d="M134.9,100.2c0-0.1,0-0.1,0-0.2c0-0.1,0-0.2,0-0.3L134.9,100.2z"/>
					<path class="st0" d="M147.7,93.5c0.1,0.2,0.2,0.3,0.3,0.4C147.9,93.7,148.9,94.8,147.7,93.5z"/>
					<path class="st0" d="M170.9,143.1c0,0.1,0,0.2,0,0.3C170.9,143.3,171,143.2,170.9,143.1C171,143,171,143,170.9,143.1z"/>
					<path class="st0" d="M140.7,105.2l-1.1-1.2C139.9,104.3,140.3,104.7,140.7,105.2z"/>
					<path class="st0" d="M120.6,119.8l0-0.4C120.6,119.6,120.6,119.7,120.6,119.8z"/>
					<path class="st0" d="M136.3,100.4c-0.2-0.2-0.4-0.5-0.6-0.7c0,0-0.1-0.1-0.1-0.1L136.3,100.4z"/>
					<path class="st0" d="M148,93.9L148,93.9L148,93.9z"/>
					<path class="st0" d="M155.4,101.7c-1-1.2-0.5-0.5-0.8-0.7c-1.2-1.4-0.5-0.7-0.9-1.2c-0.8-0.8-1.5-1.4-2.1-2.1
						c0-0.1-0.1-0.2,0-0.1c-0.9-0.8-2.5-2.7-3.5-3.6c-0.1-0.1-0.1-0.1-0.1-0.2c0.1,0.2,0.1,0.3,0.1,0.2c-0.5-0.5-0.9-0.9-1.1-1.1
						c0.3,0.3,0.3,0.3,0.5,0.5l-0.5-0.5c-0.4-0.5,0.7,0.7,0.7,0.7c-1-1-2.2-2.2-3-3c-0.1-0.2,1.8,1.8,0.9,0.7c0,0,0.3,0.3,0.6,0.6
						c0.3,0.3,0.6,0.6,0.6,0.6c-0.8-1,0.7,0.8,0-0.2c-1.5-1.6-1.8-1.7-3.3-3.3c-0.4-0.3,0.1,0.2-0.3-0.2c-2.3-2.1-1.6-1.9-3.4-3.4
						c-0.5-0.4-0.7-0.5-1.9-1.7l0.5,0.3c-1.5-1.5-1-0.8-2.5-2.4c0.3,0.3,1.2,1.2,1,0.9c-1-1.1-0.8-0.7-1.6-1.5l-0.1-0.2
						c-0.8-0.8-1.7-1.6-2.6-2.5c-0.4-0.4-0.9-0.9-1.4-1.3c-0.1-0.1-0.2-0.2-0.4-0.3c-0.2-0.1-0.3-0.1-0.5-0.2
						c-0.3-0.1-0.7-0.1-1-0.1c0.1,0,0.6,0,0-0.1c-1.6-0.1-3.4,0.1-5,0.9c-1.6,0.8-2.7,2.5-2.9,4.1c0,0-0.1,0.3-0.1,0.6
						c0,0.3,0,0.6,0,0.6c0,0.3,0,0.5,0,0.2c0,1.2,0,0.1,0.1,0.7c0.1,0.7,0.1,0.9,0,0.5c0,0.3,0.1,0.6,0.2,0.9c0,0.2,0.1,0.3,0.1,0.5
						c0,0.2,0.1,0.4,0.2,0.6c0.1,0.2,0.3,0.4,0.4,0.4c0.1,0,0,0.1,0,0.3c0.1,0.5,0.2,0.8,0.4,1.2c0.1,0.1,0.1,0.1,0.1,0.2l0,0.3
						l0,0.6c0,0.4,0,0.7,0,1.1c0,0.7,0,1.4,0,1.9l0-0.4c0,1.7,0.2,2,0.1,3.6l0-0.3c-0.1,3.8-0.2,7.9-0.6,10.8c0.1,0.6-0.4,3.7-0.2,4
						c-0.3,2.1-0.2,1.5-0.5,4.5c-0.1,0.8,0,1.2-0.1,2.2l-0.1,0l-0.1,1.4l-0.2,0.7l-0.1,0.9c0-0.4,0.1-0.8,0.1-0.7
						c-0.1,0.7-0.2,1.6-0.3,2.3c-0.1,0.7-0.2,1.2-0.2,1.3c0,0,0,0.2,0,0.5c0,0.3-0.1,0.8-0.1,1.2c0,0.9-0.1,1.7-0.1,1.7
						c0-0.1,0-0.7,0-1.1c0,1.9-0.1,0.3-0.1,2c0-0.2,0,0.1,0.1,0.2c-0.1,0.8-0.2,2.8-0.2,4.2l0-0.3c-0.1,2.6-0.2,5.4-0.3,8.3
						c0.1-1,0.1-0.8,0.1,0.1l-0.1,0.3c0,0.5,0.1-0.9,0.1,0.2c0,1.1-0.1,0.7-0.1,0.1l0,1.3c0,0.1,0-0.2-0.1-0.3c0,0.5-0.1,2.3,0,3.1
						l0,0.1c0,2.9,0.1,4.2,0.2,6.6c0.1,0,0.1,1,0.2,1.7c0,0.8,0.1,1.6,0.1,2.5c0,0.4,0.1,0.9,0.1,1.4c0,0.2,0,0.5,0.1,0.7l0,0.4
						l0,0.2c0,0,0,0.1,0,0.1c0,0,0,0,0.1,0.1c0,0,0.1,0.1,0.1,0.1c0.1,0.1,0.4-0.1,0.3-0.1c0.1-0.1,0.1-0.1,0.1-0.2l-0.6,0
						c0,0.2,0,0.3,0.1,0.5c0.2,1.5,0.1,0.4,0.2,1.1c-0.1,0.1,0.3,2.2,0.1,1.1c0.2,1.2,0.4,2,0.6,2.9c0.2,0.9,0.4,1.8,0.8,3.3
						c-0.1-0.3-0.2-0.7-0.1-0.5c0.2,0.6,0.4,1.3,0.3,1.2l-0.1-0.1c0.3,0.8,0.6,1.8,1,2.7c0.2,0.5,0.4,0.9,0.7,1.4
						c0.1,0.2,0.3,0.4,0.5,0.6c0.2,0.2,0.7,0.3,1,0.1c0.6-0.4,0.7-0.9,0.8-1.4c0.2-0.5,0.3-0.9,0.3-1.4c0.2-0.9,0.2-1.7,0.3-2.4
						l0,0.2l0.2-2.9c0.1-1.3,0,0.8,0.1-0.2c0.2-3.2,0.5-5,0.7-7.6c0.4-2,1-7.1,1.6-9.8l-0.1,0.1c0.1-0.7,0.2-0.8,0.3-1.3
						c0,0.1-0.2,0.7-0.1,0.3c0.9-5.9,2.3-12.1,3.4-18.1c0-0.3,0.1-0.5,0.1-0.7c0-0.2,0-0.4,0-0.5c0-0.3,0-0.4,0-0.6
						c0-0.4,0-0.9,0.2-2.3l0,0.8c0.4-4.5,1-9.2,1.3-13.6c0,0.3,0,0.3,0,0.7c0.1-0.5,0.1-1.3,0.2-2.1c0-0.4,0-0.7,0.1-1
						c0-0.3,0-0.4,0-0.4c0.1-0.7,0.1-0.2,0.1-0.6c0.1-0.9,0.1-2.4,0.2-2.8c0-0.1,0,0.3,0,0.4c0.1-0.6,0.2-2.8,0.1-2.3
						c0.1-0.8,0.1-1.6,0.1-2.4l0-0.3c0,0,0-0.1,0-0.1c0.1,0.1,0.2,0.2,0.3,0.3c0.7,0.5,1.9,2.1,2.2,2.2c-0.2,0,1.9,2.2,2.7,2.9
						c-0.3-0.2,0.6,0.7,0.3,0.4c0.8,0.9,1.6,1.7,1.5,1.5c1.4,1.7,3.1,3.2,3.7,4.3c2.4,2.6,4.4,5.2,6.3,7.8c-0.1,0-2.1-2.9-2.1-2.7
						c1.8,2.4,2.9,3.8,4.4,6.4c0.4,0.7-0.3-0.4-0.4-0.6c1.6,2.6,2.7,5.2,3.5,7.7c0,0-0.1-0.3-0.2-0.5c0.2,0.5,0.3,1.2,0.4,1.1
						c0,0,0-0.1-0.1-0.2c0-0.1-0.1-0.2-0.1-0.2c-0.2-0.8,0.7,2,0.7,2.1c-0.2-0.4,0,0.2,0.1,0.8c0.1,0.6,0.1,1.1-0.1,0.4
						c0.1,0.3,0.1,0.8,0.2,0.7c0,0.5,0,0.7-0.1,0.2c0.1,0.5,0.1,0.8,0.1,1c0,0.1,0,0.1,0,0.2c0,0,0,0.1,0,0.1c0,0.1,0,0.2,0,0.2
						c0,0.3,0,0.5,0.1,1.4c0,0,0-0.4-0.1-0.5c0.1,0.9,0.1,1.7-0.1,3.2c0-0.1,0,0.1,0-0.4c-0.1,0.5-0.2,1.1-0.3,1.5l0,0l0,0
						c-0.2,1.7-0.5,3.2-1.3,5.2c0.2-0.8-0.4,0.8-0.5,0.9c0,0-0.2,0.3-0.3,0.7c-0.2,0.3-0.3,0.7-0.3,0.7l0.3-0.5
						c-0.6,1.1-1.2,2.1-1.8,3c0,0,0.1-0.2,0.3-0.4c0.1-0.2,0.3-0.4,0.3-0.4s-0.3,0.5-0.7,1c-0.4,0.5-0.8,0.9-0.8,0.9
						s0.2-0.3,0.5-0.5c0.2-0.3,0.4-0.5,0.4-0.5c-0.8,1,0.2,0-0.9,1.3c0.2-0.3-0.9,1-1.4,1.4l0,0c-0.4,0.5-0.9,0.9-1.8,1.4
						c-0.2,0.1,0.1-0.2,0-0.1c-0.2,0.2-0.9,0.6-1.5,1c-0.7,0.4-1.4,0.7-1.7,0.9c0.2-0.1,0.2-0.2,0.1-0.1l-0.5,0.3
						c-0.6,0.2-0.6,0.2-0.6,0.2c-1.7,0.6,0.6-0.1-1.4,0.6c0.2-0.1,0.1,0,0.4-0.2c-0.7,0.2-1.4,0.5-2.1,0.6c-0.3,0.1-0.7,0.2-1,0.3
						l-0.5,0.1l-0.3,0.1l-0.1,0c0,0,0,0-0.1,0c0,0,0,0-0.1,0.1c0,0,0,0.1,0,0.1c0,0,0,0,0,0c0.1,0,0,0,0.1,0l0-0.2
						c-0.6,0.1-1.2,0.2-1.8,0.3c-0.6,0,1.7-0.3,1-0.3c-2.8,0.6-5.8,0.7-8.6,0.4l0.5,0.1c-0.2,0.1-0.7,0-1.3-0.1
						c-0.6-0.1-1.4-0.3-2.1-0.1c0.4,0,0.5-0.1,0.4-0.1c-0.2,0-0.5,0-0.8,0.1c-0.3,0.1-0.6,0.4-0.6,0.7c0,0.6,0.4,1,0.8,1.5
						c0.4,0.4,0.8,0.8,1.3,1.2c0.5,0.4,1.1,0.8,1.7,1.1l-0.3-0.1c0.5,0.3,1.1,0.7,1.8,0.9c0.7,0.3,1.4,0.5,2,0.7
						c0.4,0.1,1,0.3,0.6,0.1c1.8,0.6,3.6,0.8,5.3,0.8c1.7,0.1,3.4,0,5-0.1c-0.4,0-0.9,0.1-0.6,0.1c0,0,0.7-0.1,1.4-0.2
						c0.7-0.1,1.4-0.2,1.4-0.2c-0.2,0-0.4,0-1,0.1c0.3-0.1,1.1-0.2,1.8-0.4c-1.2,0.3,0,0.1,0.6,0c-0.1,0,0.1-0.1,0-0.1
						c1.4-0.3,0.2-0.1,2.2-0.6l-0.1,0.1c0.7-0.2,1.4-0.5,2.1-0.8c0.3-0.1-0.7,0.3-0.8,0.4c1.1-0.4,2-0.9,3-1.4
						c-0.4,0.2-1,0.5-1.5,0.7c1.1-0.4,1.2-0.5,1.9-0.9l-0.1,0c0,0,0.4-0.2,0.9-0.5c0.4-0.2,0.8-0.5,0.8-0.5l-0.4,0.3
						c1.1-0.9,2.4-1.6,3.8-3c-1.3,1.3-0.2,0.2-0.2,0.4c0.4-0.3,1-0.8,0.8-0.6c0.6-0.7,1.1-1,1.9-2c0.1,0,0.6-0.7,0.6-0.5
						c0.8-0.9-0.2,0.2-0.2,0.1c1.1-1.4,2.8-3.3,3.9-5.6c0.5-1,0.8-1.6,1-2.2c0.2-0.6,0.5-1.2,0.8-2.2c0.3-0.6-0.1,0.6-0.1,0.6
						c0.5-1,0.7-1.9,0.9-2.9c0,0.2,0,0,0.1-0.3c0.2-0.8,0-0.6,0.3-1.7c0,0.2,0,0.4-0.1,0.9c0.2-1,0.3-2,0.3-3c0.1-0.3,0,0.6,0,1
						c0.1-1.2,0.2-3.1,0.1-3.4l0,0.8c0-0.4,0.1-0.2,0.1,0.1c0,1-0.1,1.5-0.2,1.5l0-0.7c-0.2,0.8-0.3,3-0.6,4.5l0-0.6
						c0,0-0.1,0.4-0.1,0.8c-0.1,0.4-0.1,0.8-0.1,0.8c-0.1,0.3-0.2,0.5-0.1-0.2c-0.3,1-0.2,0.9-0.5,1.8c0,0.1,0,0,0,0
						c0,0-0.1,0.2-0.2,0.5c-0.1,0.2-0.2,0.5-0.2,0.5c0.1-0.2-0.1,0.1,0.1-0.5c-0.8,1.7-1.1,2.8-1.5,3.4l0.1-0.1
						c-1.2,2.3,0,0.3-0.9,2c0,0-0.2,0.3-0.4,0.5c-0.2,0.3-0.4,0.5-0.4,0.5l-0.1,0.3c-0.2,0.2-0.5,0.7-0.4,0.6
						c-0.5,0.8,0.1-0.1-0.2,0.4c-0.8,1-2.2,2.8-2.5,2.9c-0.3,0.4,0.9-0.9,0,0.2c-0.4,0.2-1.1,1.2-2,1.9c0.2-0.3,1.1-1,0.2-0.3
						c-0.4,0.6-1.8,1.5-2.6,2.1c0,0.1-1.8,1.3-3.2,2.1c0.1,0-2.9,1.3-4.4,1.6l0,0c-0.3,0.2-1.8,0.6-3,0.8c0-0.1,0.2-0.1,0.8-0.3
						l-1.1,0.2c-0.2,0.1-0.6,0.2-1.3,0.3l0.3-0.1c-1.4,0.2-2.9,0.4-4.8,0.4c-0.1,0.1,1.5,0.2-0.5,0.2c-0.1,0-0.1-0.1,0.4-0.1
						c-0.2,0-0.6,0-1,0l0.8,0c-0.9-0.1-0.4,0-1.1,0c0,0-0.5-0.1-0.4-0.1c0.2,0,0.6,0,0.9,0c-0.8,0-1.7-0.1-2-0.2c0.1,0,0,0.1-0.6,0
						c-1.4-0.2-0.5-0.1-1.3-0.3c-0.4,0-1.3-0.3-1.3-0.2c-0.4-0.1-0.5-0.2-0.6-0.2c-0.8-0.1-3.3-1.2-2.6-0.8l0.2,0.1c0,0-0.1,0-0.1,0
						c0,0,0,0,0,0l0,0c-1.1-0.5-2.3-1.1-3.3-1.9c-0.5-0.4-0.9-0.9-1.3-1.4c-0.2-0.3-0.3-0.5-0.4-0.8c-0.1-0.3,0-0.5,0.3-0.6l0,0
						c0.7-0.2,1.5,0,2.3,0c0.8,0.1,1.5,0.2,2,0.2c0.4,0,1,0.1,0.8,0.1c1.1,0,1.3,0,2.9,0c-1.1,0.1,0.4,0-1.2,0.1
						c1.5,0,1.8,0,3.4-0.2c-0.5,0.1,1.1-0.1,1.8-0.2c0,0-0.3,0-0.5,0.1c-0.3,0-0.5,0.1-0.5,0.1c0.6-0.1,1.1-0.2,1.7-0.3l0.2,0
						l-0.2-0.3l0,0c0,0,0,0.1,0,0.1c-0.1,0.1,0,0,0,0.1c0.1,0.1,0,0.1,0.1,0.1l0,0l0.1,0l0.2-0.1c0,0-0.3,0.2-0.3,0.2
						c1.4-0.3,2.8-0.7,3.9-1.1c1.2-0.5,2.3-0.9,3.3-1.4c0.7-0.4-1.5,0.7-0.9,0.3c1.3-0.5,2.5-1.3,2.9-1.5c0.8-0.5,1.2-0.8,1.5-1.1
						c0.3-0.3,0.6-0.7,1.3-1.4c-0.2,0.2-0.4,0.3,0.6-0.8c0.9-1.1,1.1-1.3,0.6-0.6c-0.2,0.3-0.3,0.4-0.3,0.4
						c-0.3,0.4-0.7,0.8-0.3,0.4l0.1-0.2c0.5-0.5,1.6-2.1,1.4-1.7c0.6-0.9,0.2-0.4-0.2,0.2c1-1.5,1.5-2.4,2.3-4
						c-0.1,0.3-0.3,0.5-0.2,0.2c0.6-1.2,0.6-1.5,0.6-1.7c0-0.2,0-0.3,0.3-1.1c0.3-1,0,0.4,0.4-1.4c0.2-1.1,0.1-0.2,0.1,0.2
						c0.1-0.6,0.2-1.2,0.3-1.8l0,0c0.2-0.9,0.4-1.7,0.4-2.3c0,0,0,0.2,0,0.4c0,0.2,0,0.4,0,0.4c0.1-0.5,0.1-1,0.1-1.4l-0.1,0.5
						c0.1-0.5,0.1-1,0.1-1c0-0.5-0.1,0.4-0.1-0.7c0-0.3,0-0.9,0-1.3c0-0.1,0-0.2,0-0.3c0,0,0-0.1,0-0.2c0,0,0-0.1,0-0.1
						c0-0.2,0-0.3,0-0.4c0,0.3,0.1,0.4,0.1,0.6c0,0.1,0,0.2,0,0.3c0,0.1,0,0.1,0,0c0-0.1,0.1-0.2,0.1,0.7c0-0.4,0-0.7,0-1.3
						c0-0.1,0,0.1,0,0.2c-0.2-2.1-0.1-0.9-0.5-3.1c0.1,0.3,0-0.5-0.1-0.8c0.2,0.9,0,0.4-0.2-0.3c-0.3-1.3-0.4-1.4-0.7-2.1l0.2,0.8
						c-0.1-0.3-0.3-0.9-0.7-1.8c0-0.1,0.3,0.8,0.2,0.5c-0.4-1-0.8-2.3-1.5-3.6c-0.3-0.6,0-0.1-0.2-0.6c-0.8-1.4-0.8-1.6-1.7-3.1
						c0.2,0.5,0.3,0.5-0.4-0.5c0,0,0.4,0.6,0.8,1.2c0.4,0.6,0.7,1.2,0.7,1.2s-0.2-0.4-0.5-0.8c-0.3-0.4-0.5-0.8-0.5-0.8
						c0.4,0.7,1,1.6,1.2,2c-0.5-0.7-0.4-0.7-0.3-0.3c-0.5-1.1-1.2-2-1.9-3.2l0.1,0c-1.1-1.8-2.1-3-3.7-5.1l0.5,0.7
						c-0.3-0.3-1-1.3-1.6-2c0.1,0-0.2-0.4-0.5-0.7c0,0.1-1.3-1.5-1.5-1.6L146,110c-1.4-1.6-1.7-1.8-3.1-3.3c0.5,0.4-0.2-0.3,0.8,0.7
						c-0.5-0.5-0.9-1-0.9-1c-0.3-0.3-1.4-1.4-1.8-1.9c-0.2-0.2-0.3-0.2-0.8-0.8c-0.1-0.1,0,0,0,0c0,0-0.9-0.9-0.4-0.3
						c-0.7-0.8-1.7-1.9-2.7-3c-0.5-0.6-1.1-1.1-1.6-1.6c-0.2-0.2-0.3-0.3-0.5-0.5c0,0.2,0,0.4,0,0.6c0,0.2,0,0.4,0,0.6
						c0,0.1,0,0.3,0,0.4c-0.1,1.5-0.1,3.3-0.2,4.7c0-0.1,0,0,0-0.3c-0.2,1.9,0,1.2-0.2,3.3c-0.2,1.1,0.1-1.1,0-0.5
						c-0.2,0.3-0.2,2.6-0.4,4l0-0.3c-0.2,1.1-0.2,2.7-0.4,4.5c0,0,0-0.1,0,0c-0.1,1.2-0.3,3.6-0.4,5.3c0-0.5,0.1-0.8,0-0.5
						c-0.1,0.8,0.1-0.2,0,1.3c-0.1,0.5-0.2,1.6-0.3,1.7l0.2-1.5c-0.2,0.7-0.2,1.9-0.3,2.7l0-0.1c-0.2,2.2-0.2,2.2-0.6,4.6l0.1-0.2
						c-0.1,1.3-0.3,1.1-0.4,2.4l-0.2,0.4c-0.1,0.9-0.5,3-0.7,4.6c0.1-0.9,0.4-2.7,0.6-3.8c-0.2,0.8-0.5,2.9-0.6,3.3
						c0.1-0.3,0.1-0.8,0.2-1.1c-0.1,1.1-0.3,2.4-0.6,4.1c-0.1-0.3-0.8,4.4-1.2,5.6c-0.4,3-1,6-1.5,9.5c0.3-1.2-0.1,1,0,0.8
						c-0.1,0.8-0.1,1.1-0.2,1.2c0,0-0.1,0.6-0.2,1.2c-0.1,0.6-0.2,1.2-0.2,1.2c-0.1,0.6,0-0.8,0-0.7c-0.2,1.8-0.1,0.8-0.3,1.9
						c0.1-0.2,0,0.6-0.1,1.7l0.2-1.4c-0.2,2.5-0.3,2.2-0.5,4.7l0-0.8c-0.1,1.3-0.4,4.8-0.7,6c-0.1,0.2-0.2,0.5-0.1-0.1
						c-0.1,0.4-0.2,0.7-0.3,1.1c-0.1,0.2-0.2,0.3-0.3,0.4c-0.1,0.1-0.1,0.1-0.2,0.1c-0.2-0.1-0.5-0.4-0.7-0.7
						c-0.2-0.3-0.4-0.7-0.6-1.1c-0.7-1.5-1.2-3-1.4-4.1l0.1,0.2c-0.2-0.6-0.3-1-0.4-1.7c0,0,0.1,0.2,0,0c-0.1-0.3-0.4-1.5-0.5-2.3
						l0.2,0.6c-0.4-1.9-0.6-3.3-0.8-4.7l-0.5,0c0,0,0,0,0,0c0,0,0.1,0,0.1,0c0.1,0.1,0,0,0.1,0c0.2-0.1,0.1-0.1,0.1-0.1l0-0.1
						l-0.1-0.3c0-0.2-0.1-0.4-0.1-0.6c-0.1-0.4-0.1-0.8-0.1-1.3c0.1,0,0-2.4,0-3.6l0,0c-0.1-3.5-0.3-6-0.3-9.3
						c0.1-2,0.3-6.9,0.4-10.2c0,0.5-0.1-0.1-0.1-0.7c0-0.8,0-2.1,0.1-2l0,0.3c0.1-0.6,0.2-2.2,0.2-3.4l-0.1-0.2
						c0.1-0.8,0.2-1.7,0.2-2.7c0.1-1,0.2-2,0.3-2.9c0.2-1.9,0.4-3.7,0.5-4.5c0-0.8,0.2-1.7,0.2-2.5l0.1,0c0.2-2.2,0.3-3.2,0.5-5.9
						l0,0.5c0.1-1.5,0-1.9,0.1-3.3l0.1-0.4c0.2-2.6,0.4-5.3,0.4-7.9c0,0,0,0.1,0,0.5c0.1-1.2,0.1-4.8,0-4.3c0.1,0,0-2.7-0.1-4.1
						l0.1,0.2c0-0.3-0.1-0.5-0.1-0.7c0-0.2-0.1-0.3-0.1-0.3c0-0.1-0.1-0.1-0.1-0.2c-0.1-0.2-0.2-0.3-0.2-0.6c0-0.1,0-0.2,0-0.4
						c0-0.1,0-0.1,0-0.2c0,0,0-0.1,0-0.1l-0.1-0.1c-0.1-0.1-0.2-0.2-0.3-0.2c-0.1-0.1-0.1-0.2-0.1-0.2c0,0,0.1,0.1,0.3,0.3
						c-0.3-0.3-0.3-0.3-0.4-0.5c0-0.2-0.1-0.3-0.1-0.4c-0.1-0.3-0.2-0.6-0.2-1.4c0,0,0,0.1,0,0.3c0,0.1,0.1,0.3,0.1,0.3
						c-0.1-1.3-0.1-1.2-0.1-2c0-0.4,0.1-1.1,0.3-1.6c0.2-0.5,0.4-0.9,0.5-1c0.1-0.2,0.4-0.8,1-1.3c0.1-0.1-0.1,0.1-0.2,0.3
						c0.8-0.7,1.5-1.1,2.2-1.4c0.3-0.2,0.7-0.2,1-0.3c0.3-0.1,0.7-0.1,1.1-0.1c0,0,0.1,0,0.3,0c-0.9,0-1.7,0.2-2.2,0.4
						c-0.5,0.2-0.8,0.3-0.8,0.3c0,0.1,1.3-0.4,0.3,0.1c1-0.5,3-0.8,4.4-0.6c0.1,0,0.1,0,0.2,0c0,0-0.1,0-0.1,0
						c0.3,0,0.6,0.1,0.8,0.2c0,0,0.1,0,0.1,0.1c0,0,0,0,0.1,0.1c0.1,0.1,0.1,0.1,0.2,0.2c0.1,0.1,0.3,0.3,0.4,0.4
						c0.1,0.2,1.2,1.2,1.7,1.7c0-0.1,0.7,0.6,0.1-0.1c0.1,0.1-0.1-0.1-0.5-0.4c-0.1-0.1-0.2-0.2-0.2-0.2c0,0,0,0,0,0
						c-0.3-0.3-0.8-0.8-1.3-1.3c0.4,0.4,0.9,0.8,1.4,1.4c0.3,0.2,0.6,0.5,0.8,0.6c0.6,0.8,2,2.1,2.1,2.4c1.6,1.5,3.8,3.6,4.9,4.5
						c0.5,0.4,0.5,0.5,0.6,0.7c-0.3-0.2-0.6-0.5-0.7-0.7c0.9,0.9,2.7,2.6,3,2.7c1.1,1.1-0.7-0.6,0.9,0.9l-0.2-0.2
						c1.5,1.5,2.7,2.8,4,4.1c1.3,1.3,2.6,2.6,4.1,4.4c-0.2-0.2-0.3-0.4-0.4-0.4c3.6,4,7.5,8.3,10.5,12.8c0.8,1.3,1,1.4,1.5,2.1
						l0.1,0.3l0.9,1.3c1.2,1.9,1.8,3.5,3.1,6l-0.1-0.4c0.4,0.9,1.3,3,1.2,2.8c0,0.1,0.2,0.3,0.3,0.7l0,0c0,0,0.2,0.6,0.4,1.2
						c0.2,0.6,0.4,1.2,0.4,1.2c0.5,1.9-0.2-0.3,0.5,2.5c0.3,1,0.7,2.9,0.6,2.5c-0.1-0.4-0.2-1.1-0.1-1.1l0.2,0.9
						c0.1,0.2,0.4,0.9,0.1-1.5c0,0-0.1-0.4-0.2-0.8c-0.1-0.4-0.2-0.8-0.2-0.8l-0.1-0.5c0,0,0.1,0.3,0.2,0.7c0.1,0.3,0.2,0.7,0.2,0.7
						c-0.1-0.8-0.3-1.3-0.5-1.8c0-0.1,0-0.4-0.1-0.7c0,0-0.1-0.4-0.3-0.8c-0.2-0.4-0.3-0.8-0.3-0.8c0-0.2,0.3,0.7,0-0.4
						c-0.3-0.7,0.1,0.7-0.3-0.5c-0.2-0.8-0.1-0.6-0.5-1.4c0-0.1,0.1,0,0.2,0.4c-0.3-0.8-0.9-2-1.1-2.4c-0.3-0.8-1.2-2.5-1.1-2.5
						c-0.1-0.2-0.8-1.3-1.1-1.9c0.8,1.1-1.4-2.5-1.1-2.2c-0.6-0.8-2.1-3.1-3.2-4.5c0.1,0.1,0.2,0.2,0.3,0.4
						c-0.6-0.8-0.8-1.1-1.1-1.6c-0.2,0-1.1-1.3-1.7-1.9c-0.7-1,0.6,0.5,0.4,0.2c0,0.1-1.4-1.7-1.2-1.3c-0.6-0.8-0.5-0.7-0.8-1.1
						c-0.2-0.1-0.6-0.7-1.2-1.2c-0.9-1.1-0.1-0.3-1.2-1.5C154.5,100.7,155.4,101.7,155.4,101.7z M129.2,76.7L129.2,76.7
						c0.2,0,0.3,0,0.4,0c0.2,0,0.3,0,0.3,0.1C129.8,76.7,129.6,76.7,129.2,76.7z M126.1,76.9c0.4-0.1,0.8-0.2,1.3-0.2
						c0.1,0,0,0-0.3,0.1c0.1,0-0.1,0-0.3,0C126.7,76.8,126.4,76.9,126.1,76.9z M131.8,78.7c-0.4-0.3-0.5-0.5-0.5-0.5
						c0.2,0.2,0.4,0.3,0.6,0.6c0,0,0,0,0,0C131.9,78.8,131.9,78.7,131.8,78.7z"/>
					<path class="st0" d="M132.5,79.2c0.1,0,0.1,0.1,0.1,0.1C132.6,79.3,132.5,79.2,132.5,79.2c-0.1-0.1-0.1-0.1-0.2-0.2
						C132.4,79.1,132.5,79.2,132.5,79.2z"/>
					<path class="st0" d="M133,163.7L133,163.7C133,163.7,133,163.7,133,163.7C133,163.7,133,163.7,133,163.7z"/>
					<polygon class="st0" points="120.9,116.5 121,116.5 121,116.2 					"/>
					<path class="st0" d="M149.5,164.9c0,0,0.1,0,0.2,0C149.7,164.9,149.6,164.9,149.5,164.9z"/>
					<path class="st0" d="M156.3,162.4l0.9-0.5C156.9,162.1,156.6,162.3,156.3,162.4z"/>
					<path class="st0" d="M161,159.3C161,159.2,161,159.2,161,159.3L161,159.3L161,159.3z"/>
					<path class="st0" d="M157.5,129.1c0-0.1,0-0.1-0.1-0.2C157.3,128.5,157.4,128.8,157.5,129.1z"/>
					<path class="st0" d="M152,153.4c0.2-0.2,0.4-0.4,0.6-0.6C152.2,153.1,152,153.3,152,153.4z"/>
					<path class="st0" d="M140.8,105.3L140.8,105.3c0,0-0.1-0.1-0.1-0.1L140.8,105.3z"/>
					<path class="st0" d="M153.4,151.9c-0.3,0.3-0.6,0.6-0.8,0.9C152.8,152.5,153.1,152.2,153.4,151.9z"/>
					<path class="st0" d="M171.6,138.1l0-0.3c0,0,0,0,0,0L171.6,138.1z"/>
					<path class="st0" d="M171.6,137.8l0-0.3C171.6,137.7,171.6,137.8,171.6,137.8z"/>
					<path class="st0" d="M171.6,136.9l0,0.6C171.7,137.3,171.7,137,171.6,136.9z"/>
					<path class="st0" d="M170.4,145.4L170.4,145.4C170.4,145.5,170.4,145.5,170.4,145.4z"/>
					<path class="st0" d="M169.5,147.6c0.2-0.5,0.6-1.2,0.8-1.9l0-0.1C170.3,145.9,169.7,147.1,169.5,147.6z"/>
					<path class="st0" d="M164.4,155.4c0,0,0.3-0.4,0.6-0.7c0.3-0.4,0.6-0.7,0.6-0.7c-0.2,0.2-0.5,0.6,0-0.1
						C164.1,155.6,166,153.5,164.4,155.4z"/>
					<path class="st0" d="M160.3,159.4C161,158.8,160.2,159.4,160.3,159.4C159.8,159.8,159.7,159.9,160.3,159.4z"/>
					<path class="st0" d="M133.9,159.4l-0.1,0.1C134.6,159.5,133.8,159.4,133.9,159.4z"/>
					<path class="st0" d="M141.8,158.2l-0.8,0.1l-0.1,0.1l0,0l0,0c0,0-0.1,0.1-0.1,0.1c0,0,0,0.1,0,0.2c0,0.1,0,0.1,0.1,0.1
						c0,0,0,0,0.1,0l0,0l0-0.3l-0.2,0.1l0.2,0l0,0.3c0,0,0,0-0.1,0c0,0,0,0-0.1-0.1c0-0.2,0-0.1,0.1-0.2c0.1,0,0.1,0,0.1,0l0.1,0
						l0.2-0.1L141.8,158.2z"/>
					<path class="st0" d="M146.5,157.2l-0.3,0.1c0,0,0.3-0.1,0.6-0.3c0.3-0.1,0.6-0.3,0.6-0.3L146.5,157.2z"/>
					<path class="st0" d="M135.4,98.7l0.3,0.4c0.3,0.3,0.4,0.4,0.4,0.3c0,0,0,0-0.1-0.1C135.8,99.1,135.6,98.9,135.4,98.7z"/>
					<path class="st0" d="M132,128.8c-0.1,0.3-0.3,1.2-0.3,1.7C131.8,129.8,132,129.1,132,128.8z"/>
					<polygon class="st0" points="120.8,124.6 120.8,125.2 120.8,124 					"/>
				</g>
			</g>
		</g>
	</g>
</g>
</svg>
