<?xml version="1.0" encoding="utf-8"?>
<!-- Generator: Adobe Illustrator 19.2.0, SVG Export Plug-In . SVG Version: 6.00 Build 0)  -->
<svg version="1.1" id="Layer_1" xmlns="http://www.w3.org/2000/svg" xmlns:xlink="http://www.w3.org/1999/xlink" x="0px" y="0px"
	 viewBox="0 0 752.7 279.1" style="enable-background:new 0 0 752.7 279.1;" xml:space="preserve">
<style type="text/css">
	.st0{fill:#F34335;}
</style>
<title>FUCK_HOES</title>
<path class="st0" d="M753,213c-7.3-5.3-8.6-24.3-9-32.3c-0.7-15.8-1-31.6-1.5-47.5c-0.2-6-3.7-10.4-8.3-10.4
	c-4.2,0-7.5,4.4-7.2,10.3c0.6,10.6,2.6,20.6,0.7,31.2c-0.5,2.7-1.2,5.5-4.3,6.5c-2,0.6-4.2,0.1-5.9-1.1c-3.7-2.8-4.7-7.3-6.1-11.5
	c-4.3-12.7-13.2-23-18.8-35c-3.4-7.1-3.7-15.8-4.3-23.6c-1.6-19.4-1.9-39.1-1.6-58.6c0.1-5.7,0.1-11.5,0.7-17.3
	c0.6-5.6,1.1-11.3,0.5-16.8c-0.1-0.6-0.3-1.1-0.6-1.6c-2.1-3-6.5-3.2-9-0.6c-0.6,0.7-1.2,1.4-1.5,2.2c-1,2.4-0.1,5.5,0,8.3
	c0.8,27.8,1.7,55.8,1.2,83.6c-0.1,7.8-1.5,15.9-5.8,22.3c-4.4,6.5-12.4,10.9-20,9.3c-7.3-1.5-12.6-8-14.9-15
	c-2.6-7.9-2-16.7-2.4-24.8c-0.3-6.1,0.3-12.9,1.3-19c0.9-5.6,0.5-12.3-7.1-12.3c-5.4,0-6,4.1-5.9,8.2c0.1,2.2,0.6,4.3,0.6,6.5
	c0.4,14.3,1.2,28.5,0.6,42.8c-0.5,12.3-0.6,33.4-13,40.3c-4.7,2.6-10.6,2.4-15.8,1c-6.8-1.7-13.3-5.3-17.1-11.2
	c-5.3-8.1-4.3-18-3.5-27.1c0.5-6.4,3.6-14.7,2.8-21.1c-0.6-4.9-5.6-8.8-10.5-8.5c-5.7,0.4-9.1,4.1-7.8,9.1
	c2.4,9.7,4.8,19.5,5.5,29.5c0.8,11.9-2.4,21.2-6.6,31.9c-2,5-5.7,10.2-8.5,14.8c-7.8,13-21.8,10.7-28.5-1.1
	c-5.8-10.1-7.9-22-10.5-33.3c-0.7-3-1.3-6-1.9-9c-1.5-8.4-2.4-16.9-2.6-25.4c-0.2-6-0.2-19.9,0.4-25.8c0.6-5.4,3.1-10.6,2.6-16.1
	c-0.4-4.5-6.8-13.5-11.7-8c-1.3,1.5-2,3.5-1.9,5.5c1.2,33.1,0.8,74.9-7.6,107.2c-0.4,1.5-0.8,3-1.8,4.1c-1.1,1.2-2.7,1.7-4.2,2.1
	c-4.6,1.1-12.2-24.7-15.6-1.1c-0.6,4.5-6,16.5-10.4,14.5c-3.7-1.7-4.8-10.1-8.7-8.7c-0.2,0.1-3.2,4.2-3.6,4.5
	c-3.8,3.7-6.4-28.8-12.5-34.9c-3.3-3.3-10.3-4-13.1,0.3l-0.1,0.1c-1,1.5-1.3,3.3-1.7,5.1c-0.5,2.1-2.6,18.7-4.5,19
	c-3.8,0.7-5.2-3.5-6.9-6c-3.4-4.7-10.3-5.1-14.2-0.8l-4.6,5.1c-15.1-3-16.9-20.3-20.4-35.3c-0.3-1.2-0.5-2.4-0.8-3.6
	c-4.5-20-6.6-63.5-2.4-83.7c0.8-3.7,1.9-7.5,1.1-11.2s-4.5-6.2-8.2-6.5c-1.5-0.1-3.1,0.2-4.4,1c-2.7,1.9-2.5,4.9-2.2,7.6
	c1.6,16.6,3.6,53.2,3.3,69.9c-0.5,23.7-5.4,47.7-13.4,69.9c-0.4,1.1-0.8,2.2-1.6,3c-1.2,1.2-3,1.6-4.7,1.9c-3.9,0.7-8,1.3-11.6-0.2
	c-4-1.7-6.5-5.8-8.3-9.8c-4.6-10.3-10.1-15.9-20-21c-0.7-0.4-1.5-0.8-2.1-1.3c-0.7-0.7-1.3-1.5-1.8-2.4
	c-6.9-11.8-10.2-26.1-7.7-39.6c0.7-4,1.9-6.7,1.5-10.7c-0.1-0.8-0.6-1.5-1.4-2.2c-1.4-1.3-3.5-1.4-4.9-0.1c-0.8,0.7-1.5,1.5-1.8,2.3
	c-0.7,1.7-0.2,4.1,0.4,6.1c2.7,8.7,1.4,17.6,1.5,26.2c0,5.9-4.2,10.3-8.1,14.4c-5.4,5.6-19.5,4.1-21.3-2.6
	c-1.8-6.8-6.9-14.2-2.8-52.3c0.2-2.2,1.5-4.6,1.4-6.8c-0.3-3.2-2-6.1-5.8-6.1c-3.9,0-4.4,3-4.3,6c0,1.6,0.1,3.2,0.5,4.7
	c6.6,27.5,3.7,62.1-2.7,71.7c-4.8,7.2-7.5,10.7-15.3,9.8c-8.4-1.1-13.7-6.6-14.7-15.1c-0.9-7.6-1.8-15.3-2.8-22.9
	c-0.5-3.6-4.1-6.4-7.6-6.2c-4.1,0.3-5.5,2.8-5.7,6.7c-0.6,14.1-1.7,28.3-1.8,42.4c0,8.2-5.8,12.9-12.9,13.9
	c-5.4,0.7-10.3-2.5-11-8.2c-0.5-4.3-3.3-9-5-13.9c-1.3-3.8-2.6-7.7-3.4-11.5c-5.7-24.3-0.3-66.6-0.4-80.5c0-2.8,0.8-5.9-0.1-8.4
	c-0.6-1.9-3-3.9-5-4.3c-2.7-0.6-4.8,1.2-4.7,4.4c0,2,0.3,4.1,0.3,6.1c-0.1,15.4,1.6,30.8,1.7,46.2c0.1,21.1-3.2,40.3-8.2,60.7
	c-0.5,2.1-1.1,4.4-2.9,5.5c-1.6,1.1-3.8,0.8-5.7,0.3c-9.9-3-9.7-13.9-17.5-18.1c-9.4-5-11.1,16.5-15.6,19.8
	c-1.1,0.8-2.4,1.2-3.7,1.3c-4.5,0.4-8.7-2.6-11.1-6.4c-3.6-5.6-4.5-13.2-7-19.3c-1.1-2.6-2.4-6.9-4.9-8.6c-4.4-3-6.3,1.8-8.7,5.1
	c-0.2,0.2-0.3,0.4-0.6,0.5c-0.4,0.1-0.8-0.2-1.1-0.5c-14.4-13-15.3-37.2-10.8-54.8c0.9-3.4,0-5.7-1.5-7.7c-1-1.4-4-2.3-5.7-1.9
	c-1.6,0.4-3.6,2.8-3.7,4.4c-0.2,3.9,0.8,7.8,1.1,11.7c0.5,6.5,4,10.4,1,31.2c-1.1,7.3-2.8,14.6-4.4,21.8c-1.4,6.7-2.5,13.5-4.3,20.1
	c-1.1,4-4,6.9-8.5,7.8c-2.6,0.5-4.1,3.5-5.6,6.8c-2.2,4.9-6.1,8.9-11,11.1c-2.6,1.1-4.6,1.7-4.6,1.7v67l753.1,0.3V213z"/>
<path class="st0" d="M671.8,128.2l0.2-2.2c1.8-7,2.7-14,4.9-20.9c0.5-1.5,2.7-3.3,4.2-3.4c1.3-0.1,3.9,2,4,3.3
	c0.7,8.3,5.2,16.1,1.5,25.1c-2.1,5-4.2,8.4-9.5,7.8C671.3,137.3,671.6,132.5,671.8,128.2z"/>
<path class="st0" d="M503.2,124c4.4-3.7,16,10.4,10.6,20.9c-2.5,4.9-5.7,5.2-8.4,4.2c-3.5-1.3-5.8-4.7-5.8-8.4
	C499.7,135.3,500.2,126.5,503.2,124z"/>
</svg>
