<?xml version="1.0" encoding="utf-8"?>
<!-- Generator: Adobe Illustrator 19.2.0, SVG Export Plug-In . SVG Version: 6.00 Build 0)  -->
<svg version="1.1" id="Layer_1" xmlns="http://www.w3.org/2000/svg" xmlns:xlink="http://www.w3.org/1999/xlink" x="0px" y="0px"
	 viewBox="0 0 751 556" style="enable-background:new 0 0 751 556;" xml:space="preserve">
<style type="text/css">
	.st0{fill:#F34335;}
	.st1{fill:#E53535;}
</style>
<path class="st0" d="M-0.4-2.6v2.4v410.3h1.2v0.9c7.3,5.3,8.6,13.3,9,21.4c0.7,15.8,1,31.6,1.5,47.5c0.2,6,3.7,10.4,8.3,10.4
	c4.2,0,7.5-4.4,7.2-10.3c-0.4-6.9-1.5-13.7-1.9-20.6c-0.2-3.3,0.5-6.7,1.1-10.1c0.7-4.1,2.2-7.8,7.4-7.1c4.7,0.7,6.1,4.4,7.6,8.5
	c2.3,6.3,5.1,12.5,8.3,18.5c4.1,7.6,9.8,14.5,13,22.4c5.5,13.8,5.9,28.5,4.4,43.3c-0.6,5.6-1.1,11.3-0.5,16.8
	c0.1,0.6,0.3,1.1,0.6,1.6c2.1,3,6.5,3.2,9,0.6c0.6-0.7,1.2-1.4,1.5-2.2c1-2.4,0.1-5.5,0-8.3c-0.3-11.8-0.9-23.7-1-35.5
	c0-8.1,4.2-14.7,9.6-20.3c10.1-10.4,28.4-4.3,30.6,9.2c0.8,5,1.5,9.9,2,14.9c0.4,3.9,0.2,10.2-0.5,14.1c-0.9,5.6-0.5,12.3,7.1,12.3
	c5.4,0,6-4.1,5.9-8.2c-0.1-2.2-0.6-4.3-0.6-6.5c-0.6-18.7-2.8-37.5,3.7-55.8c4-11.2,10.4-14.8,21-13.4c11.6,1.5,18.8,9.1,20.3,20.8
	c1.3,10.5,2.4,21,3.8,31.4c0.6,4.9,5.6,8.8,10.5,8.5c5.7-0.4,7.6-3.9,7.8-9.1c0.8-19.4,2.3-38.9,2.4-58.3c0.1-11.3,8-17.8,17.8-19.1
	c17-2.3,22.8,31.2,25.7,43.4c0.7,3,1.3,6,1.9,9c1.5,8.4,2.4,16.9,2.6,25.4c0.2,6,0.2,12.1-0.4,18c-0.6,5.4-3.1,10.6-2.6,16.1
	c0.4,4.5,6.8,13.5,11.7,8c1.3-1.5,2-3.5,1.9-5.5c-1.2-33.1-0.8-67.2,7.6-99.5c0.4-1.5,0.8-3,1.8-4.1c1.1-1.2,2.7-1.7,4.2-2.1
	c4.6-1.1,11.4-1.3,15.6,1.1c3.9,2.3,6,6.8,10.4,8.8c1.6,0.7,3.2,1.3,4.8,1.5c1.7,8.7,5.9,14.8,10.8,14.8c5.8,0,10.6-8.5,11.5-19.6
	c3.9,3.8,9.2,6.1,15.1,6.1c3.1,0,6.1-0.7,8.8-1.8c4,11.1,10.3,19.4,23.9,20.9c2.4,0.2,5,2.5,6.7,4.5c12.1,14,15.6,32.5,11.8,50.4
	c-0.8,3.7-1.9,7.5-1.1,11.2s4.5,6.2,8.2,6.5c1.5,0.1,3.1-0.2,4.4-1c2.7-1.9,2.5-4.9,2.2-7.6c-1.3-13.1-4.1-27-2.8-40.2
	c0.9-10.1,3.9-20,6-30c1.9-9.2,3.4-18.5,5.9-27.6c0.8-3,2.4-5.6,4.6-7.4c7.5-0.7,13.8-3.7,18.7,2.7c4,5.3,5.6,12.2,9.7,17.6
	c3.9,5.2,9.7,8.9,15.9,10.5c2.1,3.2,4.2,6.4,5.6,9.9c4,10.1,4.3,20.8,3.2,31.5c-0.4,4.1-0.8,8.2-0.4,12.3c0.1,0.8,0.6,1.5,1.4,2.2
	c1.4,1.3,3.5,1.4,4.9,0.1c0.8-0.7,1.5-1.5,1.8-2.3c0.7-1.7,0.1-4,0-6.1c-0.3-8.6-0.7-17.2-0.7-25.8c0-5.9,3-10.7,7-14.8
	c5.4-5.6,19.5-4.1,21.3,2.6c1.8,6.8,2.2,14.1,2.8,21.2c0.2,2.2-1.5,4.6-1.4,6.8c0.3,3.2,2,6.1,5.8,6.1c3.9,0,4.4-3,4.3-6
	c0-1.6-0.4-3.1-0.5-4.7c-0.4-13.6-2-27.3,2.7-40.6c2.9-8.2,7.5-10.7,15.3-9.8c8.4,1.1,13.7,6.6,14.7,15.1c0.9,7.6,1.8,15.3,2.8,22.9
	c0.5,3.6,4.1,6.4,7.6,6.2c4.1-0.3,5.5-2.8,5.7-6.7c0.6-14.1,1.7-28.3,1.8-42.4c0-8.2,5.8-12.9,12.9-13.9c5.4-0.7,10.3,2.5,11,8.2
	c0.5,4.3,3.3,9,5,13.9c1.3,3.8,2.6,7.7,3.4,11.5c5.7,24.3,0.3,51.1,0.4,64.9c0,2.8-0.8,5.9,0.1,8.4c0.6,1.9,3,3.9,5,4.3
	c2.7,0.6,4.8-1.2,4.7-4.4c0-2-0.3-4.1-0.3-6.1c0.1-14.3-4.2-34.7,0.6-66.3c1.3-8.6,4.4-17.1,6.1-25.8c0.9-4.2,3.2-6.1,6.7-5.4
	c3.3,0.7,7.1,2.2,9.1,4.7c8.1,10,17.8,9.1,23.2-2.6c1.9-4.1,5.3-5.6,9.6-4.4c5.3,1.5,8.4,5.4,9.8,10.3c2.8,9.5,7.3,17,18.4,18.2
	c1.7,0.2,3.6,1.8,4.9,3.3c10.2,11.8,11.4,25.7,7.8,40.1c-0.9,3.4,0,5.7,1.5,7.7c1,1.4,4,2.3,5.7,1.9c1.6-0.4,3.6-2.8,3.7-4.4
	c0.2-3.9-0.8-7.8-1.1-11.7c-0.5-6.5-1.6-13.1-1-19.5c0.7-7.3,2.8-14.6,4.4-21.8c1.4-6.7,2.5-13.5,4.3-20.1c1.1-4,4-7.1,8.5-7.8
	c14-2,16.6-5.3,20.6-18c3.4-12.4-1-403.7-1-403.7h-0.2 M80.2,465.9c-0.2,2.9-3.5,6.8-6.3,7.7c-2.2,0.8-6.4-1.6-8.5-3.8
	c-9.6-9.9-12.3-22.6-12.6-35.8c-0.2-6.2,3.4-8.7,10.3-8.6c8.3,0.1,15.8,5.3,16.9,13.7C81.2,447.9,80.9,457,80.2,465.9z M99.8,444.6
	l-0.1,1.4c-1.2,4.6-1.8,9.2-3.2,13.8c-0.3,1-1.8,2.2-2.7,2.2c-0.9,0-2.6-1.3-2.6-2.2c-0.4-5.5-3.4-10.7-1-16.6
	c1.4-3.3,2.8-5.5,6.3-5.1C100.1,438.6,99.9,441.7,99.8,444.6z"/>
<g>
	<path class="st1" d="M91.1,278.3c-14.5,0-27-4.7-33.1-11.5c-0.5-0.4-1.1-0.9-1.6-1.4c0,0,8.7,16.7,34.7,16.2
		c26,0.5,34.7-16.2,34.7-16.2c-0.5,0.5-1.1,1-1.6,1.4C118.1,273.6,105.6,278.3,91.1,278.3z"/>
	<path class="st1" d="M49.9,372.4c-10.4,0-19.4-5.6-23.9-13.7c-0.4-0.5-0.8-1.1-1.2-1.7c0,0,6.3,19.9,25,19.4
		c18.7,0.6,25-19.4,25-19.4c-0.4,0.6-0.8,1.1-1.2,1.7C69.4,366.8,60.4,372.4,49.9,372.4z"/>
	<path class="st1" d="M186.8,139.3c-16.5,0-30.8-8.8-37.9-21.8c-0.6-0.8-1.2-1.7-1.8-2.7c0,0,10,31.6,39.7,30.7
		c29.7,0.9,39.7-30.7,39.7-30.7c-0.6,0.9-1.2,1.8-1.8,2.7C217.7,130.5,203.3,139.3,186.8,139.3z"/>
	<path class="st1" d="M91.1,47.3c-11.3,0-21-6-25.8-14.8c-0.4-0.6-0.8-1.2-1.2-1.8c0,0,6.8,21.6,27,20.9c20.2,0.6,27-20.9,27-20.9
		c-0.4,0.6-0.8,1.2-1.2,1.8C112.1,41.3,102.4,47.3,91.1,47.3z"/>
	<path class="st1" d="M169.8,346.7c-11,0-20.5-5.9-25.2-14.5c-0.4-0.6-0.8-1.2-1.2-1.8c0,0,6.7,21.1,26.4,20.5
		c19.8,0.6,26.4-20.5,26.4-20.5c-0.4,0.6-0.8,1.2-1.2,1.8C190.3,340.8,180.8,346.7,169.8,346.7z"/>
	<path class="st1" d="M601.1,278.3c-14.5,0-27-4.7-33.1-11.5c-0.5-0.4-1.1-0.9-1.6-1.4c0,0,8.7,16.7,34.7,16.2
		c26,0.5,34.7-16.2,34.7-16.2c-0.5,0.5-1.1,1-1.6,1.4C628.1,273.6,615.6,278.3,601.1,278.3z"/>
	<path class="st1" d="M560,372.4c-10.4,0-19.4-5.6-23.9-13.7c-0.4-0.5-0.8-1.1-1.2-1.7c0,0,6.3,19.9,25,19.4
		c18.7,0.6,25-19.4,25-19.4c-0.4,0.6-0.8,1.1-1.2,1.7C579.4,366.8,570.4,372.4,560,372.4z"/>
	<path class="st1" d="M696.8,139.3c-16.5,0-30.8-8.8-37.9-21.8c-0.6-0.8-1.2-1.7-1.8-2.7c0,0,10,31.6,39.7,30.7
		c29.7,0.9,39.7-30.7,39.7-30.7c-0.6,0.9-1.2,1.8-1.8,2.7C727.7,130.5,713.4,139.3,696.8,139.3z"/>
	<path class="st1" d="M601.1,47.3c-11.3,0-21-6-25.8-14.8c-0.4-0.6-0.8-1.2-1.2-1.8c0,0,6.8,21.6,27,20.9c20.2,0.6,27-20.9,27-20.9
		c-0.4,0.6-0.8,1.2-1.2,1.8C622.1,41.3,612.4,47.3,601.1,47.3z"/>
	<path class="st1" d="M679.8,346.7c-11,0-20.5-5.9-25.2-14.5c-0.4-0.6-0.8-1.2-1.2-1.8c0,0,6.7,21.1,26.4,20.5
		c19.8,0.6,26.4-20.5,26.4-20.5c-0.4,0.6-0.8,1.2-1.2,1.8C700.3,340.8,690.8,346.7,679.8,346.7z"/>
</g>
</svg>
